
<svg aria-hidden="true" style="position:absolute;width:0;height:0;overflow:hidden" xmlns="http://www.w3.org/2000/svg">
  <defs>
    <symbol id="icon-Icon-2" viewBox="0 0 41 32">
      <path fill="none" stroke="#e8e8e2" style="stroke:var(--color1, #e8e8e2)" stroke-linejoin="round" stroke-linecap="round" stroke-width="5.818" d="m37.818 4.364-24 24L2.909 17.455"/>
    </symbol>
    <symbol id="icon-shop" viewBox="0 0 32 32">
    <path fill="#6d8434" style="fill: var(--color1, #6d8434)" d="M4.798 1.6c-0.424 0-0.831 0.169-1.131 0.469s-0.469 0.707-0.469 1.131c0 0.424 0.169 0.831 0.469 1.131s0.707 0.469 1.131 0.469h1.952l0.488 1.955c0.005 0.022 0.010 0.045 0.016 0.067l2.173 8.688-1.429 1.427c-2.016 2.016-0.589 5.462 2.262 5.462h13.738c0.424 0 0.831-0.169 1.131-0.469s0.469-0.707 0.469-1.131c0-0.424-0.169-0.831-0.469-1.131s-0.707-0.469-1.131-0.469h-13.738l1.6-1.6h10.538c0.297-0 0.588-0.083 0.841-0.239s0.457-0.38 0.59-0.646l4.8-9.6c0.122-0.244 0.179-0.515 0.167-0.787s-0.094-0.537-0.237-0.769c-0.143-0.232-0.343-0.423-0.581-0.556s-0.506-0.203-0.779-0.203h-17.152l-0.496-1.989c-0.087-0.346-0.286-0.653-0.568-0.873s-0.628-0.339-0.984-0.339h-3.2zM25.598 26.4c0 0.637-0.253 1.247-0.703 1.697s-1.061 0.703-1.697 0.703c-0.637 0-1.247-0.253-1.697-0.703s-0.703-1.061-0.703-1.697c0-0.637 0.253-1.247 0.703-1.697s1.061-0.703 1.697-0.703c0.637 0 1.247 0.253 1.697 0.703s0.703 1.061 0.703 1.697zM10.398 28.8c0.636 0 1.247-0.253 1.697-0.703s0.703-1.061 0.703-1.697c0-0.637-0.253-1.247-0.703-1.697s-1.061-0.703-1.697-0.703c-0.637 0-1.247 0.253-1.697 0.703s-0.703 1.061-0.703 1.697c0 0.637 0.253 1.247 0.703 1.697s1.061 0.703 1.697 0.703z"></path>
    </symbol>
    <symbol id="icon-logo-mobile-w" viewBox="0 0 176 32">
      <path fill="#e8e8e2" style="fill:var(--color1, #e8e8e2)" d="M32 16c0 8.837-7.163 16-16 16S0 24.837 0 16 7.163 0 16 0s16 7.163 16 16z"/>
      <path fill="#6d8434" style="fill:var(--color2, #6d8434)" d="M16.849 9.499a3.066 3.066 0 0 0-1.038-.975c-1.149-.659-2.629-.543-3.995.222C9.28 10.167 7.619 12.838 7.619 16c0 4.221 3.055 7.629 7.045 8.274.436.07.881.107 1.336.107a8.35 8.35 0 0 0 8.381-8.446c-.018-1.472-.608-3.278-1.541-4.722-.93-1.438-2.359-2.749-4.135-2.732-.867.002-1.459.478-1.855 1.019v-.001zm5.071 3.158a3.605 3.605 0 0 0-.962-.025l-.884-1.486-1.309.777.68 1.143a5.188 5.188 0 0 0-.811.476.566.566 0 0 0-.014-.044c-.203-.617-.597-1.124-1.121-1.627l.003-.015c.053-.246.136-.564.262-.872.284-.698.614-.981.945-.981h.008c.984-.011 2.008.744 2.843 2.035.13.2.25.407.361.619l-.001.001zm-4.694 2.284a4.05 4.05 0 0 0-.762.089 2.867 2.867 0 0 0-.809-.872 2.454 2.454 0 0 0-2.318-.299 11.947 11.947 0 0 0-.247-.138l2.463-2.414-1.067-1.088-2.922 2.864c-.617-.179-1.194-.243-1.712-.171a6.63 6.63 0 0 1 2.708-2.836c1.039-.582 1.933-.55 2.492-.229.533.306.976.999.865 2.238l-.034.383.288.255c.626.554.887.912 1 1.254.079.24.105.53.054.965zm-2.141.766c-.651.545-1.087 1.309-1.341 2.135l-2.266-2.488-1.127 1.027 3.115 3.419c-.004.908.113 1.838.282 2.678a6.822 6.822 0 0 1-4.606-6.479c0-.792.22-1.224.479-1.413.245-.18.782-.327 1.882.079.398.147.858.373 1.384.7l.382.238.393-.221c.475-.267.837-.172 1.115.023.122.085.226.192.306.301zm1.345 7.136 5.556-6.123-1.128-1.024-2.234 2.462.005-.773-1.524-.011-.018 2.476-1.892 2.085c-.143-.778-.229-1.614-.201-2.398.049-1.337.583-2.436 1.373-2.871.328-.181.906-.251 1.363-.171l.678.118.187-.662c.098-.345.356-.715.76-1.044.41-.331.887-.569 1.397-.698.61-.149 1.131-.072 1.474.165.299.206.6.626.629 1.489v.014l.002.122a6.822 6.822 0 0 1-6.427 6.843z"/>
      <path fill="#e8e8e2" style="fill:var(--color1, #e8e8e2)" d="M41.76 22.034c1.008-.123 1.563-.576 1.563-1.378v-8.373c0-.802-.555-1.275-1.563-1.378v-.823h10.45c.185 0 .267.062.288.206.062.617.103 1.234.432 2.736h-.514c-.72-1.255-1.337-1.913-2.551-1.913h-1.749c-.926 0-1.317.514-1.317 1.337v2.16c0 .823.391 1.275 1.317 1.275h.823c1.666 0 1.975-.391 2.139-1.317h.453v3.662h-.453c-.165-.864-.473-1.296-2.139-1.296h-.823c-.926 0-1.317.453-1.317 1.275v2.448c0 .802.555 1.255 1.769 1.378v.823h-6.809v-.823zm16.362.947c-2.53 0-5.102-1.522-5.102-4.855 0-3.312 2.571-4.731 5.04-4.731 2.551 0 5.102 1.522 5.102 4.855 0 3.312-2.551 4.731-5.04 4.731zm-1.81-5.76c0 2.551.843 4.814 2.16 4.814.802 0 1.399-.802 1.399-2.921 0-2.53-.802-4.793-2.16-4.793-.823 0-1.399.823-1.399 2.901zm12.87 5.76c-2.53 0-5.102-1.522-5.102-4.855 0-3.312 2.571-4.731 5.04-4.731 2.551 0 5.102 1.522 5.102 4.855 0 3.312-2.551 4.731-5.04 4.731zm-1.811-5.76c0 2.551.843 4.814 2.16 4.814.802 0 1.399-.802 1.399-2.921 0-2.53-.802-4.793-2.16-4.793-.823 0-1.399.823-1.399 2.901zm11.698 5.76c-1.934 0-3.929-1.584-3.929-4.629 0-3.271 2.242-4.958 4.423-4.958 2.263 0 2.859 1.769 2.859-.309v-1.234c0-.967-.535-1.131-1.296-1.07v-.802l3.353-.555c.699-.103 1.029.206 1.029.823v10.512c0 .679.267 1.131.864.885v.453c-.288.699-1.029.885-1.666.885-.699 0-1.584-.226-1.831-.843-.165-.391-.35-.597-.658-.597-.411 0-1.234 1.44-3.147 1.44zm-.617-5.699c0 2.037.905 4.032 2.222 4.032.802 0 1.749-.576 1.749-2.304v-.967c0-2.674-1.255-3.723-2.283-3.723-1.049 0-1.687 1.296-1.687 2.962zm12.237 4.752c1.008-.123 1.563-.576 1.563-1.378v-8.352c0-.823-.555-1.296-1.563-1.399v-.823h6.357c4.032 0 6.027.967 6.027 3.045 0 1.173-.679 2.325-3.024 2.695 2.633.37 3.765 1.605 3.765 3.353 0 2.386-2.119 3.682-4.999 3.682-1.646 0-5.143-.514-8.126 0v-.823zm5.041-1.069c0 .535.329.782.926.782h.72c1.563 0 2.736-.597 2.736-2.592 0-1.934-1.193-2.777-3.456-2.777-.535 0-.926.411-.926 1.234v3.353zm0-6.81c0 .823.391 1.234 1.317 1.234h.535c1.419 0 1.79-1.111 1.79-2.057 0-1.44-.782-2.242-2.119-2.242h-.206c-.926 0-1.317.432-1.317 1.255v1.81zm14.114 8.826c-2.53 0-5.102-1.522-5.102-4.855 0-3.312 2.571-4.731 5.04-4.731 2.551 0 5.102 1.522 5.102 4.855 0 3.312-2.551 4.731-5.041 4.731zm-1.81-5.76c0 2.551.843 4.814 2.16 4.814.802 0 1.399-.802 1.399-2.921 0-2.53-.802-4.793-2.16-4.793-.823 0-1.399.823-1.399 2.901zm11.321 5.76c-1.44 0-3.003-.597-3.003-3.826v-3.271c0-.946-.535-1.111-1.296-1.09v-.802l3.353-.555c.699-.103 1.029.206 1.029.823v4.402c0 1.44.597 2.469 1.707 2.469 1.131 0 1.707-1.029 1.707-2.469v-2.777c0-.946-.535-1.111-1.296-1.09v-.802l3.333-.555c.72-.103 1.049.206 1.049.823v6.501c0 .679.267 1.131.864.885v.453c-.288.699-1.029.885-1.728.885-1.481 0-1.893-.926-1.995-1.378-.062-.288-.226-.432-.37-.432s-.247.123-.35.267c-.576.782-1.378 1.543-3.003 1.543zm12.268-.021c-1.893 0-3.045-1.049-3.045-3.045V15.41c0-.72-.165-.864-.638-.864h-.926v-.658c1.707-.391 2.53-1.173 3.23-2.304.165-.267.309-.35.576-.35h.37c.309 0 .494.185.494.494l-.021 1.275c0 .453.226.576 1.275.576h1.337v1.09l-1.337-.082c-1.049-.062-1.275.123-1.275.864v4.361c0 1.131.123 1.893 1.131 1.893.267 0 .679-.041 1.07-.329.267.329.37.617.103.864-.473.411-1.317.72-2.345.72zm3.483-.905c.946-.062 1.296-.37 1.296-1.481v-4.711c0-.967-.535-1.131-1.275-1.07v-.802l3.333-.555c.699-.103 1.029.206 1.029.823v6.315c0 1.111.35 1.419 1.275 1.481v.802h-5.657v-.802zm.803-11.212c0-.987.823-1.749 1.79-1.749.946 0 1.749.761 1.749 1.749s-.802 1.749-1.749 1.749c-.967 0-1.79-.761-1.79-1.749zm10.997 15.141c1.173-.082 1.522-.391 1.522-1.419v-2.201c0-.37-.185-.494-.37-.494a.406.406 0 0 0-.288.123c-.411.411-1.296.987-2.592.987-2.119 0-4.073-1.563-4.073-4.587 0-3.291 2.283-4.999 4.649-4.999 2.057 0 2.921 1.255 3.682 1.255.72 0 1.008-1.234 1.584-1.234.37 0 .494.206.494.494v10.656c0 1.029.35 1.337 1.275 1.419v.782h-5.883v-.782zm-2.489-8.722c0 2.037.864 4.053 2.304 4.053.782 0 1.687-.576 1.707-2.88-.021-3.086-1.296-4.114-2.325-4.114-1.111 0-1.687 1.296-1.687 2.942zm12.367 5.719c-1.44 0-3.003-.597-3.003-3.826v-3.271c0-.946-.535-1.111-1.296-1.09v-.802l3.353-.555c.699-.103 1.029.206 1.029.823v4.402c0 1.44.597 2.469 1.707 2.469 1.131 0 1.707-1.029 1.707-2.469v-2.777c0-.946-.535-1.111-1.296-1.09v-.802l3.333-.555c.72-.103 1.049.206 1.049.823v6.501c0 .679.267 1.131.864.885v.453c-.288.699-1.029.885-1.728.885-1.481 0-1.893-.926-1.995-1.378-.062-.288-.226-.432-.37-.432s-.247.123-.35.267c-.576.782-1.378 1.543-3.003 1.543zm13.391 0c-2.571 0-5.122-1.481-5.122-4.711 0-3.374 2.757-4.875 5.307-4.875 2.181 0 3.95 1.09 3.95 2.901 0 1.851-1.79 1.954-3.6 2.098l-1.605.123c-.35.021-.535.185-.535.658 0 1.522 1.646 2.201 3.003 2.201.72 0 1.707-.206 2.448-1.049l.617.555c-.391.802-2.057 2.098-4.464 2.098zm-1.749-6.151c0 .597.144.905.679.885l.741-.082c1.419-.144 1.707-.514 1.707-1.317 0-.987-.411-1.975-1.481-1.975-1.337 0-1.646 1.502-1.646 2.489z"/>
    </symbol>
    <symbol id="icon-logo-desc-tablet-w" viewBox="0 0 197 32">
      <path fill="#e8e8e2" style="fill:var(--color1, #e8e8e2)" d="M32 16c0 8.837-7.163 16-16 16S0 24.837 0 16 7.163 0 16 0s16 7.163 16 16z"/>
      <path fill="#6d8434" style="fill:var(--color2, #6d8434)" d="M16.93 8.89a3.363 3.363 0 0 0-1.136-1.067c-1.257-.721-2.876-.594-4.37.243C8.65 9.62 6.833 12.542 6.833 16c0 4.617 3.342 8.344 7.706 9.05.477.077.964.117 1.461.117a9.128 9.128 0 0 0 6.516-2.701 9.142 9.142 0 0 0 2.651-6.537c-.019-1.61-.665-3.586-1.686-5.165-1.017-1.573-2.58-3.007-4.523-2.988-.948.002-1.596.523-2.028 1.115V8.89zm5.546 3.454a3.944 3.944 0 0 0-1.052-.027l-.967-1.625-1.432.85.743 1.25a5.631 5.631 0 0 0-.887.521l-.015-.048c-.223-.675-.652-1.229-1.226-1.78l.003-.017c.058-.269.149-.617.287-.954.311-.763.672-1.073 1.033-1.073h.009c1.076-.012 2.197.814 3.109 2.226a8.6 8.6 0 0 1 .395.677l-.001.001zm-5.134 2.498a4.382 4.382 0 0 0-.833.098 3.127 3.127 0 0 0-.885-.954 2.683 2.683 0 0 0-2.535-.328 11.72 11.72 0 0 0-.27-.151l2.694-2.641-1.167-1.19-3.196 3.133c-.675-.196-1.306-.266-1.872-.188a7.257 7.257 0 0 1 2.962-3.102c1.137-.637 2.114-.602 2.726-.251.583.334 1.068 1.093.946 2.448l-.037.419.315.279c.685.606.97.998 1.093 1.372.087.262.115.58.059 1.056zM15 15.679c-.712.596-1.189 1.432-1.467 2.335l-2.478-2.721-1.232 1.123 3.407 3.74c-.004.993.123 2.01.308 2.929A7.46 7.46 0 0 1 8.5 15.999c0-.867.241-1.339.524-1.546.268-.197.855-.357 2.058.087.435.161.938.408 1.514.766l.418.26.43-.242c.519-.292.916-.188 1.22.025.133.093.248.21.335.329zm1.471 7.806 6.077-6.697-1.234-1.12-2.443 2.692.006-.845-1.667-.012-.019 2.708-2.069 2.281c-.157-.851-.25-1.765-.22-2.622.053-1.462.637-2.664 1.502-3.14.358-.198.991-.275 1.491-.187l.742.129.204-.724c.107-.377.389-.782.831-1.142a3.97 3.97 0 0 1 1.528-.763c.668-.163 1.237-.078 1.612.18.328.225.657.685.688 1.628v.015l.003.133a7.468 7.468 0 0 1-7.029 7.485z"/>
      <path fill="#e8e8e2" style="fill:var(--color1, #e8e8e2)" d="M40.72 23.04c1.176-.144 1.824-.672 1.824-1.608v-9.768c0-.936-.648-1.488-1.824-1.608v-.96h12.192c.216 0 .312.072.336.24.072.72.12 1.44.504 3.192h-.6c-.84-1.464-1.56-2.232-2.976-2.232h-2.04c-1.08 0-1.536.6-1.536 1.56v2.52c0 .96.456 1.488 1.536 1.488h.96c1.944 0 2.304-.456 2.496-1.536h.528V18.6h-.528c-.192-1.008-.552-1.512-2.496-1.512h-.96c-1.08 0-1.536.528-1.536 1.488v2.856c0 .936.648 1.464 2.064 1.608V24H40.72v-.96zm19.089 1.104c-2.952 0-5.952-1.776-5.952-5.664 0-3.864 3-5.52 5.88-5.52 2.976 0 5.952 1.776 5.952 5.664 0 3.864-2.976 5.52-5.88 5.52zm-2.112-6.72c0 2.976.984 5.616 2.52 5.616.936 0 1.632-.936 1.632-3.408 0-2.952-.936-5.592-2.52-5.592-.96 0-1.632.96-1.632 3.384zm15.015 6.72c-2.952 0-5.952-1.776-5.952-5.664 0-3.864 3-5.52 5.88-5.52 2.976 0 5.952 1.776 5.952 5.664 0 3.864-2.976 5.52-5.88 5.52zm-2.112-6.72c0 2.976.984 5.616 2.52 5.616.936 0 1.632-.936 1.632-3.408 0-2.952-.936-5.592-2.52-5.592-.96 0-1.632.96-1.632 3.384zm13.647 6.72c-2.256 0-4.584-1.848-4.584-5.4 0-3.816 2.616-5.784 5.16-5.784 2.64 0 3.336 2.064 3.336-.36v-1.44c0-1.128-.624-1.32-1.512-1.248v-.936l3.912-.648c.816-.12 1.2.24 1.2.96v12.264c0 .792.312 1.32 1.008 1.032v.528c-.336.816-1.2 1.032-1.944 1.032-.816 0-1.848-.264-2.136-.984-.192-.456-.408-.696-.768-.696-.48 0-1.44 1.68-3.672 1.68zm-.72-6.648c0 2.376 1.056 4.704 2.592 4.704.936 0 2.04-.672 2.04-2.688v-1.128c0-3.12-1.464-4.344-2.664-4.344-1.224 0-1.968 1.512-1.968 3.456zm14.277 5.544c1.176-.144 1.824-.672 1.824-1.608v-9.744c0-.96-.648-1.512-1.824-1.632v-.96h7.416c4.704 0 7.032 1.128 7.032 3.552 0 1.368-.792 2.712-3.528 3.144 3.072.432 4.392 1.872 4.392 3.912 0 2.784-2.472 4.296-5.832 4.296-1.92 0-6-.6-9.48 0v-.96zm5.88-1.248c0 .624.384.912 1.08.912h.84c1.824 0 3.192-.696 3.192-3.024 0-2.256-1.392-3.24-4.032-3.24-.624 0-1.08.48-1.08 1.44v3.912zm0-7.944c0 .96.456 1.44 1.536 1.44h.624c1.656 0 2.088-1.296 2.088-2.4 0-1.68-.912-2.616-2.472-2.616h-.24c-1.08 0-1.536.504-1.536 1.464v2.112zm16.467 10.296c-2.952 0-5.952-1.776-5.952-5.664 0-3.864 3-5.52 5.88-5.52 2.976 0 5.952 1.776 5.952 5.664 0 3.864-2.976 5.52-5.88 5.52zm-2.112-6.72c0 2.976.984 5.616 2.52 5.616.936 0 1.632-.936 1.632-3.408 0-2.952-.936-5.592-2.52-5.592-.96 0-1.632.96-1.632 3.384zm13.209 6.72c-1.68 0-3.504-.696-3.504-4.464v-3.816c0-1.104-.624-1.296-1.512-1.272v-.936l3.912-.648c.816-.12 1.2.24 1.2.96v5.136c0 1.68.696 2.88 1.992 2.88 1.32 0 1.992-1.2 1.992-2.88v-3.24c0-1.104-.624-1.296-1.512-1.272v-.936l3.888-.648c.84-.12 1.224.24 1.224.96v7.584c0 .792.312 1.32 1.008 1.032v.528c-.336.816-1.2 1.032-2.016 1.032-1.728 0-2.208-1.08-2.328-1.608-.072-.336-.264-.504-.432-.504s-.288.144-.408.312c-.672.912-1.608 1.8-3.504 1.8zm14.312-.024c-2.208 0-3.552-1.224-3.552-3.552v-5.256c0-.84-.192-1.008-.744-1.008h-1.08v-.768c1.992-.456 2.952-1.368 3.768-2.688.192-.312.36-.408.672-.408h.432c.36 0 .576.216.576.576l-.024 1.488c0 .528.264.672 1.488.672h1.56v1.272l-1.56-.096c-1.224-.072-1.488.144-1.488 1.008v5.088c0 1.32.144 2.208 1.32 2.208.312 0 .792-.048 1.248-.384.312.384.432.72.12 1.008-.552.48-1.536.84-2.736.84zm4.064-1.056c1.104-.072 1.512-.432 1.512-1.728V15.84c0-1.128-.624-1.32-1.488-1.248v-.936l3.888-.648c.816-.12 1.2.24 1.2.96v7.368c0 1.296.408 1.656 1.488 1.728V24h-6.6v-.936zm.936-13.08c0-1.152.96-2.04 2.088-2.04 1.104 0 2.04.888 2.04 2.04s-.936 2.04-2.04 2.04c-1.128 0-2.088-.888-2.088-2.04zm12.831 17.664c1.368-.096 1.776-.456 1.776-1.656v-2.568c0-.432-.216-.576-.432-.576-.12 0-.24.048-.336.144-.48.48-1.512 1.152-3.024 1.152-2.472 0-4.752-1.824-4.752-5.352 0-3.84 2.664-5.832 5.424-5.832 2.4 0 3.408 1.464 4.296 1.464.84 0 1.176-1.44 1.848-1.44.432 0 .576.24.576.576v12.432c0 1.2.408 1.56 1.488 1.656v.912h-6.864v-.912zm-2.904-10.176c0 2.376 1.008 4.728 2.688 4.728.912 0 1.968-.672 1.992-3.36-.024-3.6-1.512-4.8-2.712-4.8-1.296 0-1.968 1.512-1.968 3.432zm14.427 6.672c-1.68 0-3.504-.696-3.504-4.464v-3.816c0-1.104-.624-1.296-1.512-1.272v-.936l3.912-.648c.816-.12 1.2.24 1.2.96v5.136c0 1.68.696 2.88 1.992 2.88 1.32 0 1.992-1.2 1.992-2.88v-3.24c0-1.104-.624-1.296-1.512-1.272v-.936l3.888-.648c.84-.12 1.224.24 1.224.96v7.584c0 .792.312 1.32 1.008 1.032v.528c-.336.816-1.2 1.032-2.016 1.032-1.728 0-2.208-1.08-2.328-1.608-.072-.336-.264-.504-.432-.504s-.288.144-.408.312c-.672.912-1.608 1.8-3.504 1.8zm15.624 0c-3 0-5.976-1.728-5.976-5.496 0-3.936 3.216-5.688 6.192-5.688 2.544 0 4.608 1.272 4.608 3.384 0 2.16-2.088 2.28-4.2 2.448l-1.872.144c-.408.024-.624.216-.624.768 0 1.776 1.92 2.568 3.504 2.568.84 0 1.992-.24 2.856-1.224l.72.648c-.456.936-2.4 2.448-5.208 2.448zm-2.04-7.176c0 .696.168 1.056.792 1.032l.864-.096c1.656-.168 1.992-.6 1.992-1.536 0-1.152-.48-2.304-1.728-2.304-1.56 0-1.92 1.752-1.92 2.904z"/>
    </symbol>
    <symbol id="icon-logo-desc-tablet" viewBox="0 0 196 32">
      <path fill="#6d8434" style="fill:var(--color2, #6d8434)" d="M32 16c0 8.837-7.163 16-16 16S0 24.837 0 16 7.163 0 16 0s16 7.163 16 16z"/>
      <path fill="#e8e8e2" style="fill:var(--color1, #e8e8e2)" d="M16.93 8.89a3.363 3.363 0 0 0-1.136-1.067c-1.257-.721-2.876-.594-4.37.243C8.65 9.62 6.833 12.542 6.833 16c0 4.617 3.342 8.344 7.706 9.05.477.077.964.117 1.461.117a9.128 9.128 0 0 0 6.516-2.701 9.142 9.142 0 0 0 2.651-6.537c-.019-1.61-.665-3.586-1.686-5.165-1.017-1.573-2.58-3.007-4.523-2.988-.948.002-1.596.523-2.028 1.115V8.89zm5.546 3.454a3.944 3.944 0 0 0-1.052-.027l-.967-1.625-1.432.85.743 1.25a5.631 5.631 0 0 0-.887.521l-.015-.048c-.223-.675-.652-1.229-1.226-1.78l.003-.017c.058-.269.149-.617.287-.954.311-.763.672-1.073 1.033-1.073h.009c1.076-.012 2.197.814 3.109 2.226a8.6 8.6 0 0 1 .395.677l-.001.001zm-5.134 2.498a4.382 4.382 0 0 0-.833.098 3.127 3.127 0 0 0-.885-.954 2.683 2.683 0 0 0-2.535-.328 11.72 11.72 0 0 0-.27-.151l2.694-2.641-1.167-1.19-3.196 3.133c-.675-.196-1.306-.266-1.872-.188a7.257 7.257 0 0 1 2.962-3.102c1.137-.637 2.114-.602 2.726-.251.583.334 1.068 1.093.946 2.448l-.037.419.315.279c.685.606.97.998 1.093 1.372.087.262.115.58.059 1.056zM15 15.679c-.712.596-1.189 1.432-1.467 2.335l-2.478-2.721-1.232 1.123 3.407 3.74c-.004.993.123 2.01.308 2.929A7.46 7.46 0 0 1 8.5 15.999c0-.867.241-1.339.524-1.546.268-.197.855-.357 2.058.087.435.161.938.408 1.514.766l.418.26.43-.242c.519-.292.916-.188 1.22.025.133.093.248.21.335.329zm1.471 7.806 6.077-6.697-1.234-1.12-2.443 2.692.006-.845-1.667-.012-.019 2.708-2.069 2.281c-.157-.851-.25-1.765-.22-2.622.053-1.462.637-2.664 1.502-3.14.358-.198.991-.275 1.491-.187l.742.129.204-.724c.107-.377.389-.782.831-1.142a3.97 3.97 0 0 1 1.528-.763c.668-.163 1.237-.078 1.612.18.328.225.657.685.688 1.628v.015l.003.133a7.468 7.468 0 0 1-7.029 7.485z"/>
      <path fill="#010101" style="fill:var(--color3, #010101)" d="M40 20.788c1.176-.144 1.824-.672 1.824-1.608V9.412c0-.936-.648-1.488-1.824-1.608v-.96h12.192c.216 0 .312.072.336.24.072.72.12 1.44.504 3.192h-.6c-.84-1.464-1.56-2.232-2.976-2.232h-2.04c-1.08 0-1.536.6-1.536 1.56v2.52c0 .96.456 1.488 1.536 1.488h.96c1.944 0 2.304-.456 2.496-1.536h.528v4.272h-.528c-.192-1.008-.552-1.512-2.496-1.512h-.96c-1.08 0-1.536.528-1.536 1.488v2.856c0 .936.648 1.464 2.064 1.608v.96H40v-.96zM59.089 21.892c-2.952 0-5.952-1.776-5.952-5.664 0-3.864 3-5.52 5.88-5.52 2.976 0 5.952 1.776 5.952 5.664 0 3.864-2.976 5.52-5.88 5.52zm-2.112-6.72c0 2.976.984 5.616 2.52 5.616.936 0 1.632-.936 1.632-3.408 0-2.952-.936-5.592-2.52-5.592-.96 0-1.632.96-1.632 3.384zM71.992 21.892c-2.952 0-5.952-1.776-5.952-5.664 0-3.864 3-5.52 5.88-5.52 2.976 0 5.952 1.776 5.952 5.664 0 3.864-2.976 5.52-5.88 5.52zm-2.112-6.72c0 2.976.984 5.616 2.52 5.616.936 0 1.632-.936 1.632-3.408 0-2.952-.936-5.592-2.52-5.592-.96 0-1.632.96-1.632 3.384zM83.527 21.892c-2.256 0-4.584-1.848-4.584-5.4 0-3.816 2.616-5.784 5.16-5.784 2.64 0 3.336 2.064 3.336-.36v-1.44c0-1.128-.624-1.32-1.512-1.248v-.936l3.912-.648c.816-.12 1.2.24 1.2.96V19.3c0 .792.312 1.32 1.008 1.032v.528c-.336.816-1.2 1.032-1.944 1.032-.816 0-1.848-.264-2.136-.984-.192-.456-.408-.696-.768-.696-.48 0-1.44 1.68-3.672 1.68zm-.72-6.648c0 2.376 1.056 4.704 2.592 4.704.936 0 2.04-.672 2.04-2.688v-1.128c0-3.12-1.464-4.344-2.664-4.344-1.224 0-1.968 1.512-1.968 3.456zM97.084 20.788c1.176-.144 1.824-.672 1.824-1.608V9.436c0-.96-.648-1.512-1.824-1.632v-.96h7.416c4.704 0 7.032 1.128 7.032 3.552 0 1.368-.792 2.712-3.528 3.144 3.072.432 4.392 1.872 4.392 3.912 0 2.784-2.472 4.296-5.832 4.296-1.92 0-6-.6-9.48 0v-.96zm5.88-1.248c0 .624.384.912 1.08.912h.84c1.824 0 3.192-.696 3.192-3.024 0-2.256-1.392-3.24-4.032-3.24-.624 0-1.08.48-1.08 1.44v3.912zm0-7.944c0 .96.456 1.44 1.536 1.44h.624c1.656 0 2.088-1.296 2.088-2.4 0-1.68-.912-2.616-2.472-2.616h-.24c-1.08 0-1.536.504-1.536 1.464v2.112zM119.431 21.892c-2.952 0-5.952-1.776-5.952-5.664 0-3.864 3-5.52 5.88-5.52 2.976 0 5.952 1.776 5.952 5.664 0 3.864-2.976 5.52-5.88 5.52zm-2.112-6.72c0 2.976.984 5.616 2.52 5.616.936 0 1.632-.936 1.632-3.408 0-2.952-.936-5.592-2.52-5.592-.96 0-1.632.96-1.632 3.384zM130.528 21.892c-1.68 0-3.504-.696-3.504-4.464v-3.816c0-1.104-.624-1.296-1.512-1.272v-.936l3.912-.648c.816-.12 1.2.24 1.2.96v5.136c0 1.68.696 2.88 1.992 2.88 1.32 0 1.992-1.2 1.992-2.88v-3.24c0-1.104-.624-1.296-1.512-1.272v-.936l3.888-.648c.84-.12 1.224.24 1.224.96V19.3c0 .792.312 1.32 1.008 1.032v.528c-.336.816-1.2 1.032-2.016 1.032-1.728 0-2.208-1.08-2.328-1.608-.072-.336-.264-.504-.432-.504s-.288.144-.408.312c-.672.912-1.608 1.8-3.504 1.8zM144.84 21.868c-2.208 0-3.552-1.224-3.552-3.552V13.06c0-.84-.192-1.008-.744-1.008h-1.08v-.768c1.992-.456 2.952-1.368 3.768-2.688.192-.312.36-.408.672-.408h.432c.36 0 .576.216.576.576l-.024 1.488c0 .528.264.672 1.488.672h1.56v1.272l-1.56-.096c-1.224-.072-1.488.144-1.488 1.008v5.088c0 1.32.144 2.208 1.32 2.208.312 0 .792-.048 1.248-.384.312.384.432.72.12 1.008-.552.48-1.536.84-2.736.84zM148.904 20.812c1.104-.072 1.512-.432 1.512-1.728v-5.496c0-1.128-.624-1.32-1.488-1.248v-.936l3.888-.648c.816-.12 1.2.24 1.2.96v7.368c0 1.296.408 1.656 1.488 1.728v.936h-6.6v-.936zm.936-13.08c0-1.152.96-2.04 2.088-2.04 1.104 0 2.04.888 2.04 2.04s-.936 2.04-2.04 2.04c-1.128 0-2.088-.888-2.088-2.04zM162.671 25.396c1.368-.096 1.776-.456 1.776-1.656v-2.568c0-.432-.216-.576-.432-.576-.12 0-.24.048-.336.144-.48.48-1.512 1.152-3.024 1.152-2.472 0-4.752-1.824-4.752-5.352 0-3.84 2.664-5.832 5.424-5.832 2.4 0 3.408 1.464 4.296 1.464.84 0 1.176-1.44 1.848-1.44.432 0 .576.24.576.576V23.74c0 1.2.408 1.56 1.488 1.656v.912h-6.864v-.912zm-2.904-10.176c0 2.376 1.008 4.728 2.688 4.728.912 0 1.968-.672 1.992-3.36-.024-3.6-1.512-4.8-2.712-4.8-1.296 0-1.968 1.512-1.968 3.432zM174.194 21.892c-1.68 0-3.504-.696-3.504-4.464v-3.816c0-1.104-.624-1.296-1.512-1.272v-.936l3.912-.648c.816-.12 1.2.24 1.2.96v5.136c0 1.68.696 2.88 1.992 2.88 1.32 0 1.992-1.2 1.992-2.88v-3.24c0-1.104-.624-1.296-1.512-1.272v-.936l3.888-.648c.84-.12 1.224.24 1.224.96V19.3c0 .792.312 1.32 1.008 1.032v.528c-.336.816-1.2 1.032-2.016 1.032-1.728 0-2.208-1.08-2.328-1.608-.072-.336-.264-.504-.432-.504s-.288.144-.408.312c-.672.912-1.608 1.8-3.504 1.8zM189.818 21.892c-3 0-5.976-1.728-5.976-5.496 0-3.936 3.216-5.688 6.192-5.688 2.544 0 4.608 1.272 4.608 3.384 0 2.16-2.088 2.28-4.2 2.448l-1.872.144c-.408.024-.624.216-.624.768 0 1.776 1.92 2.568 3.504 2.568.84 0 1.992-.24 2.856-1.224l.72.648c-.456.936-2.4 2.448-5.208 2.448zm-2.04-7.176c0 .696.168 1.056.792 1.032l.864-.096c1.656-.168 1.992-.6 1.992-1.536 0-1.152-.48-2.304-1.728-2.304-1.56 0-1.92 1.752-1.92 2.904z"/>
    </symbol>
    <symbol id="icon-logo-mobile" viewBox="0 0 175 32">
      <path fill="#6d8434" style="fill:var(--color2, #6d8434)" d="M32 16c0 8.837-7.163 16-16 16S0 24.837 0 16 7.163 0 16 0s16 7.163 16 16z"/>
      <path fill="#e8e8e2" style="fill:var(--color1, #e8e8e2)" d="M16.849 9.499a3.066 3.066 0 0 0-1.038-.975c-1.149-.659-2.629-.543-3.995.222C9.28 10.167 7.619 12.838 7.619 16c0 4.221 3.055 7.629 7.045 8.274.436.07.881.107 1.336.107a8.35 8.35 0 0 0 8.381-8.446c-.018-1.472-.608-3.278-1.541-4.722-.93-1.438-2.359-2.749-4.135-2.732-.867.002-1.459.478-1.855 1.019v-.001zm5.071 3.158a3.605 3.605 0 0 0-.962-.025l-.884-1.486-1.309.777.68 1.143a5.188 5.188 0 0 0-.811.476.566.566 0 0 0-.014-.044c-.203-.617-.597-1.124-1.121-1.627l.003-.015c.053-.246.136-.564.262-.872.284-.698.614-.981.945-.981h.008c.984-.011 2.008.744 2.843 2.035.13.2.25.407.361.619l-.001.001zm-4.694 2.284a4.05 4.05 0 0 0-.762.089 2.867 2.867 0 0 0-.809-.872 2.454 2.454 0 0 0-2.318-.299 11.947 11.947 0 0 0-.247-.138l2.463-2.414-1.067-1.088-2.922 2.864c-.617-.179-1.194-.243-1.712-.171a6.63 6.63 0 0 1 2.708-2.836c1.039-.582 1.933-.55 2.492-.229.533.306.976.999.865 2.238l-.034.383.288.255c.626.554.887.912 1 1.254.079.24.105.53.054.965zm-2.141.766c-.651.545-1.087 1.309-1.341 2.135l-2.266-2.488-1.127 1.027 3.115 3.419c-.004.908.113 1.838.282 2.678a6.822 6.822 0 0 1-4.606-6.479c0-.792.22-1.224.479-1.413.245-.18.782-.327 1.882.079.398.147.858.373 1.384.7l.382.238.393-.221c.475-.267.837-.172 1.115.023.122.085.226.192.306.301zm1.345 7.136 5.556-6.123-1.128-1.024-2.234 2.462.005-.773-1.524-.011-.018 2.476-1.892 2.085c-.143-.778-.229-1.614-.201-2.398.049-1.337.583-2.436 1.373-2.871.328-.181.906-.251 1.363-.171l.678.118.187-.662c.098-.345.356-.715.76-1.044.41-.331.887-.569 1.397-.698.61-.149 1.131-.072 1.474.165.299.206.6.626.629 1.489v.014l.002.122a6.822 6.822 0 0 1-6.427 6.843z"/>
      <path fill="#010101" style="fill:var(--color3, #010101)" d="M41.143 20.104c1.008-.123 1.563-.576 1.563-1.378v-8.373c0-.802-.555-1.275-1.563-1.378v-.823h10.45c.185 0 .267.062.288.206.062.617.103 1.234.432 2.736h-.514c-.72-1.255-1.337-1.913-2.551-1.913h-1.749c-.926 0-1.317.514-1.317 1.337v2.16c0 .823.391 1.275 1.317 1.275h.823c1.666 0 1.975-.391 2.139-1.317h.453v3.662h-.453c-.165-.864-.473-1.296-2.139-1.296h-.823c-.926 0-1.317.453-1.317 1.275v2.448c0 .802.555 1.255 1.769 1.378v.823h-6.809v-.823zM57.505 21.05c-2.53 0-5.102-1.522-5.102-4.855 0-3.312 2.571-4.731 5.04-4.731 2.551 0 5.102 1.522 5.102 4.855 0 3.312-2.551 4.731-5.04 4.731zm-1.81-5.76c0 2.551.843 4.814 2.16 4.814.802 0 1.399-.802 1.399-2.921 0-2.53-.802-4.793-2.16-4.793-.823 0-1.399.823-1.399 2.901zM68.565 21.05c-2.53 0-5.102-1.522-5.102-4.855 0-3.312 2.571-4.731 5.04-4.731 2.551 0 5.102 1.522 5.102 4.855 0 3.312-2.551 4.731-5.04 4.731zm-1.811-5.76c0 2.551.843 4.814 2.16 4.814.802 0 1.399-.802 1.399-2.921 0-2.53-.802-4.793-2.16-4.793-.823 0-1.399.823-1.399 2.901zM78.452 21.05c-1.934 0-3.929-1.584-3.929-4.629 0-3.271 2.242-4.958 4.423-4.958 2.263 0 2.859 1.769 2.859-.309V9.92c0-.967-.535-1.131-1.296-1.07v-.802l3.353-.555c.699-.103 1.029.206 1.029.823v10.512c0 .679.267 1.131.864.885v.453c-.288.699-1.029.885-1.666.885-.699 0-1.584-.226-1.831-.843-.165-.391-.35-.597-.658-.597-.411 0-1.234 1.44-3.147 1.44zm-.618-5.698c0 2.037.905 4.032 2.222 4.032.802 0 1.749-.576 1.749-2.304v-.967c0-2.674-1.255-3.723-2.283-3.723-1.049 0-1.687 1.296-1.687 2.962zM90.072 20.104c1.008-.123 1.563-.576 1.563-1.378v-8.352c0-.823-.555-1.296-1.563-1.399v-.823h6.357c4.032 0 6.027.967 6.027 3.045 0 1.173-.679 2.325-3.024 2.695 2.633.37 3.765 1.605 3.765 3.353 0 2.386-2.119 3.682-4.999 3.682-1.646 0-5.143-.514-8.126 0v-.823zm5.04-1.07c0 .535.329.782.926.782h.72c1.563 0 2.736-.597 2.736-2.592 0-1.934-1.193-2.777-3.456-2.777-.535 0-.926.411-.926 1.234v3.353zm0-6.809c0 .823.391 1.234 1.317 1.234h.535c1.419 0 1.79-1.111 1.79-2.057 0-1.44-.782-2.242-2.119-2.242h-.206c-.926 0-1.317.432-1.317 1.255v1.81zM109.227 21.05c-2.53 0-5.102-1.522-5.102-4.855 0-3.312 2.571-4.731 5.04-4.731 2.551 0 5.102 1.522 5.102 4.855 0 3.312-2.551 4.731-5.04 4.731zm-1.81-5.76c0 2.551.843 4.814 2.16 4.814.802 0 1.399-.802 1.399-2.921 0-2.53-.802-4.793-2.16-4.793-.823 0-1.399.823-1.399 2.901zM118.738 21.05c-1.44 0-3.003-.597-3.003-3.826v-3.271c0-.946-.535-1.111-1.296-1.09v-.802l3.353-.555c.699-.103 1.029.206 1.029.823v4.402c0 1.44.597 2.469 1.707 2.469 1.131 0 1.707-1.029 1.707-2.469v-2.777c0-.946-.535-1.111-1.296-1.09v-.802l3.333-.555c.72-.103 1.049.206 1.049.823v6.501c0 .679.267 1.131.864.885v.453c-.288.699-1.029.885-1.728.885-1.481 0-1.893-.926-1.995-1.378-.062-.288-.226-.432-.37-.432s-.247.123-.35.267c-.576.782-1.378 1.543-3.003 1.543zM131.006 21.03c-1.893 0-3.045-1.049-3.045-3.045V13.48c0-.72-.165-.864-.638-.864h-.926v-.658c1.707-.391 2.53-1.173 3.23-2.304.165-.267.309-.35.576-.35h.37c.309 0 .494.185.494.494l-.021 1.275c0 .453.226.576 1.275.576h1.337v1.09l-1.337-.082c-1.049-.062-1.275.123-1.275.864v4.361c0 1.131.123 1.893 1.131 1.893.267 0 .679-.041 1.07-.329.267.329.37.617.103.864-.473.411-1.317.72-2.345.72zM134.489 20.125c.946-.062 1.296-.37 1.296-1.481v-4.711c0-.967-.535-1.131-1.275-1.07v-.802l3.333-.555c.699-.103 1.029.206 1.029.823v6.315c0 1.111.35 1.419 1.275 1.481v.802h-5.657v-.802zm.802-11.212c0-.987.823-1.749 1.79-1.749.946 0 1.749.761 1.749 1.749s-.802 1.749-1.749 1.749c-.967 0-1.79-.761-1.79-1.749zM146.289 24.054c1.173-.082 1.522-.391 1.522-1.419v-2.201c0-.37-.185-.494-.37-.494a.406.406 0 0 0-.288.123c-.411.411-1.296.987-2.592.987-2.119 0-4.073-1.563-4.073-4.587 0-3.291 2.283-4.999 4.649-4.999 2.057 0 2.921 1.255 3.682 1.255.72 0 1.008-1.234 1.584-1.234.37 0 .494.206.494.494v10.656c0 1.029.35 1.337 1.275 1.419v.782h-5.883v-.782zm-2.489-8.723c0 2.037.864 4.053 2.304 4.053.782 0 1.687-.576 1.707-2.88-.021-3.086-1.296-4.114-2.325-4.114-1.111 0-1.687 1.296-1.687 2.942zM156.167 21.05c-1.44 0-3.003-.597-3.003-3.826v-3.271c0-.946-.535-1.111-1.296-1.09v-.802l3.353-.555c.699-.103 1.029.206 1.029.823v4.402c0 1.44.597 2.469 1.707 2.469 1.131 0 1.707-1.029 1.707-2.469v-2.777c0-.946-.535-1.111-1.296-1.09v-.802l3.333-.555c.72-.103 1.049.206 1.049.823v6.501c0 .679.267 1.131.864.885v.453c-.288.699-1.029.885-1.728.885-1.481 0-1.893-.926-1.995-1.378-.062-.288-.226-.432-.37-.432s-.247.123-.35.267c-.576.782-1.378 1.543-3.003 1.543zM169.558 21.05c-2.571 0-5.122-1.481-5.122-4.711 0-3.374 2.757-4.875 5.307-4.875 2.181 0 3.95 1.09 3.95 2.901 0 1.851-1.79 1.954-3.6 2.098l-1.605.123c-.35.021-.535.185-.535.658 0 1.522 1.646 2.201 3.003 2.201.72 0 1.707-.206 2.448-1.049l.617.555c-.391.802-2.057 2.098-4.464 2.098zm-1.749-6.151c0 .597.144.905.679.885l.741-.082c1.419-.144 1.707-.514 1.707-1.317 0-.987-.411-1.975-1.481-1.975-1.337 0-1.646 1.502-1.646 2.489z"/>
    </symbol>
    <symbol id="icon-youtube" viewBox="0 0 46 32">
      <path fill="#e8e8e2" style="fill:var(--color1, #e8e8e2)" d="M35.929.444C33.813.32 29.458.195 22.862.195h-.871c-6.347 0-10.578.124-12.693.373-2.862.249-4.853.996-5.973 1.991-.996.871-1.742 2.489-1.991 4.604-.124 1.369-.249 4.231-.249 8.587v.622c0 4.107.124 6.969.373 8.338.373 1.991.996 3.484 2.24 4.356 1.244.996 3.36 1.618 6.347 1.867 2.116.124 6.471.249 13.067.249h.871c6.347 0 10.578-.124 12.693-.373 2.862-.249 4.853-.996 5.973-1.991.996-.871 1.742-2.489 1.991-4.604.124-1.369.249-4.231.249-8.587v-.622c0-4.107-.124-6.969-.373-8.338-.373-1.991-.996-3.484-2.24-4.356-1.244-.996-3.36-1.618-6.347-1.867zm-4.853 15.307-13.689 8.213V7.537l13.689 8.213z"/>
    </symbol>
    <symbol id="icon-insta" viewBox="0 0 32 32">
      <path fill="#e8e8e2" style="fill:var(--color1, #e8e8e2)" d="M30.837 9.882a10.776 10.776 0 0 0-.695-3.669 7.64 7.64 0 0 0-4.367-4.36 10.971 10.971 0 0 0-3.626-.695c-1.595-.071-2.101-.091-6.151-.091s-4.569 0-6.153.091a10.97 10.97 0 0 0-3.624.695 7.635 7.635 0 0 0-4.367 4.36 10.834 10.834 0 0 0-.695 3.618c-.071 1.595-.093 2.1-.093 6.143s0 4.56.093 6.143c.025 1.239.259 2.461.695 3.621a7.64 7.64 0 0 0 4.369 4.358c1.154.45 2.38.705 3.624.745 1.597.071 2.103.093 6.153.093s4.569 0 6.153-.093a10.939 10.939 0 0 0 3.626-.694 7.649 7.649 0 0 0 4.367-4.36c.436-1.159.67-2.381.695-3.621.071-1.593.093-2.098.093-6.143-.003-4.043-.003-4.557-.096-6.141zM15.988 23.62c-4.236 0-7.667-3.426-7.667-7.655s3.431-7.655 7.667-7.655c4.233 0 7.667 3.426 7.667 7.655s-3.435 7.655-7.667 7.655zm7.973-13.808a1.784 1.784 0 1 1 0-3.57 1.784 1.784 0 1 1 0 3.57z"/>
    </symbol>
    <symbol id="icon-facebook" viewBox="0 0 32 32">
      <path fill="#e8e8e2" style="fill:var(--color1, #e8e8e2)" d="M20.928.096h1.344v5.04h-1.68c-.672 0-1.344 0-1.68.336-.336.336-.336.672-.336 1.456V8.72h3.696v4.256h-3.696v18.48h-5.712V12.864H9.84V8.608h3.024V7.152c0-2.464.336-4.256 1.008-5.04C14.88.656 16.896-.016 19.92-.016c.336.112.672.112 1.008.112z"/>
    </symbol>
    <symbol id="icon-search" viewBox="0 0 32 32">
      <path d="M21.833 19.333h-1.317l-.467-.45a10.783 10.783 0 0 0 2.617-7.05 10.83 10.83 0 0 0-6.688-10.009 10.833 10.833 0 1 0-4.146 20.843c2.683 0 5.15-.983 7.05-2.617l.45.467v1.317l8.333 8.317 2.483-2.483-8.317-8.333zm-10 0c-4.15 0-7.5-3.35-7.5-7.5s3.35-7.5 7.5-7.5 7.5 3.35 7.5 7.5-3.35 7.5-7.5 7.5z"/>
    </symbol>
    <symbol id="icon-cart" viewBox="0 0 32 32">
      <path d="M4.141 1.694a1.694 1.694 0 1 0 0 3.388h2.067l.517 2.07.017.071 2.301 9.199-1.513 1.511c-2.135 2.135-.623 5.784 2.395 5.784h14.546a1.694 1.694 0 1 0 0-3.388H9.925l1.694-1.694h11.157a1.693 1.693 0 0 0 1.514-.936l5.082-10.165a1.693 1.693 0 0 0-1.515-2.451H9.696l-.525-2.106a1.694 1.694 0 0 0-1.643-1.283H4.14zm22.024 26.259a2.544 2.544 0 0 1-2.541 2.541 2.544 2.544 0 0 1-2.541-2.541 2.544 2.544 0 0 1 2.541-2.541 2.544 2.544 0 0 1 2.541 2.541zm-16.094 2.541a2.544 2.544 0 0 0 2.541-2.541 2.544 2.544 0 0 0-2.541-2.541 2.544 2.544 0 0 0-2.541 2.541 2.544 2.544 0 0 0 2.541 2.541z"/>
    </symbol>
    <symbol id="icon-cart" viewBox="0 0 30 32">
      <path d="M3.2 1.694c-0.449 0-0.88 0.178-1.198 0.496s-0.496 0.749-0.496 1.198c0 0.449 0.179 0.88 0.496 1.198s0.749 0.496 1.198 0.496h2.067l0.517 2.070c0.005 0.024 0.011 0.048 0.017 0.071l2.301 9.199-1.513 1.511c-2.135 2.135-0.623 5.784 2.395 5.784h14.546c0.449 0 0.88-0.178 1.198-0.496s0.496-0.749 0.496-1.198-0.178-0.88-0.496-1.198c-0.318-0.318-0.749-0.496-1.198-0.496h-14.546l1.694-1.694h11.157c0.315-0 0.623-0.088 0.89-0.253s0.484-0.402 0.624-0.683l5.082-10.165c0.129-0.258 0.19-0.545 0.177-0.833s-0.1-0.569-0.251-0.814c-0.152-0.246-0.364-0.448-0.616-0.589s-0.536-0.215-0.825-0.215h-18.161l-0.525-2.106c-0.092-0.366-0.303-0.692-0.601-0.924s-0.665-0.359-1.042-0.359h-3.388zM25.224 27.953c0 0.674-0.268 1.32-0.744 1.797s-1.123 0.744-1.797 0.744c-0.674 0-1.32-0.268-1.797-0.744s-0.744-1.123-0.744-1.797c0-0.674 0.268-1.32 0.744-1.797s1.123-0.744 1.797-0.744c0.674 0 1.32 0.268 1.797 0.744s0.744 1.123 0.744 1.797zM9.13 30.494c0.674 0 1.32-0.268 1.797-0.744s0.744-1.123 0.744-1.797c0-0.674-0.268-1.32-0.744-1.797s-1.123-0.744-1.797-0.744-1.32 0.268-1.797 0.744c-0.477 0.477-0.744 1.123-0.744 1.797s0.268 1.32 0.744 1.797 1.123 0.744 1.797 0.744z"></path>
    </symbol>
    <symbol id="icon-discount" viewBox="0 0 32 32">
      <path fill="#6d8434" style="fill: var(--color1, #6d8434)" d="M32 16c0 8.837-7.163 16-16 16s-16-7.163-16-16c0-8.837 7.163-16 16-16s16 7.163 16 16z"></path>
      <path fill="#fafafa" style="fill: var(--color2, #fafafa)" d="M26.947 20.862l-0.233 0.63-4.293-1.582 0.233-0.63 0.354 0.131 0.005-0.012c-0.15-0.24-0.274-0.626-0.099-1.1 0.29-0.787 1.118-1.143 2.127-0.771s1.406 1.18 1.116 1.966c-0.175 0.475-0.508 0.693-0.802 0.769l-0.004 0.012 1.597 0.588zM23.389 18.597c-0.19 0.516 0.118 0.992 0.797 1.242 0.685 0.252 1.223 0.089 1.413-0.427 0.204-0.553-0.192-1.033-0.793-1.254s-1.213-0.113-1.418 0.439zM25.093 22.529c0.11-0.149 0.326-0.229 0.513-0.093s0.171 0.363 0.061 0.512c-0.117 0.16-0.325 0.238-0.511 0.102s-0.18-0.361-0.062-0.521zM24.845 21.936l-0.397 0.542-2.641-1.93 0.397-0.542 2.64 1.93zM21.828 23.303c-0.555 0.274-1.144 0.585-1.641-0.017-0.4-0.483-0.234-1.126 0.379-1.63 0.815-0.671 1.48-0.58 1.945-0.068l-0.504 0.415c-0.249-0.251-0.559-0.385-1.093 0.054-0.361 0.297-0.367 0.601-0.236 0.759 0.261 0.316 0.582 0.092 1.027-0.124 0.477-0.236 1.086-0.604 1.559-0.032 0.342 0.414 0.25 1.046-0.382 1.567-0.687 0.565-1.319 0.464-1.716 0.053l0.504-0.415c0.197 0.169 0.464 0.29 0.869-0.044 0.311-0.256 0.381-0.513 0.235-0.69-0.212-0.257-0.51-0.045-0.945 0.173zM18.35 25.162c0.132 0.307 0.462 0.62 1.007 0.435 0.624-0.212 0.709-0.836 0.51-1.417s-0.641-1.026-1.271-0.812c-0.545 0.185-0.617 0.628-0.523 0.982l-0.636 0.216c-0.196-0.731 0.176-1.445 0.982-1.719 0.927-0.315 1.755 0.148 2.085 1.117s-0.042 1.839-0.963 2.152c-0.806 0.274-1.509-0.062-1.828-0.738l0.637-0.216zM15.606 23.245c1.022 0.062 1.598 0.809 1.537 1.825s-0.725 1.687-1.747 1.625-1.598-0.81-1.537-1.825c0.062-1.016 0.725-1.687 1.747-1.625zM15.573 23.795c-0.639-0.039-1.002 0.445-1.042 1.116-0.041 0.677 0.261 1.196 0.9 1.235s1.001-0.439 1.042-1.116c0.041-0.671-0.261-1.196-0.9-1.235zM10.771 25.275l-0.605-0.293 1.431-2.941 0.604 0.293-0.185 0.38 0.011 0.005c0.268-0.155 0.685-0.237 1.191 0.009 0.547 0.266 0.825 0.791 0.497 1.465l-0.988 2.032-0.61-0.297 0.905-1.859c0.193-0.397 0.149-0.731-0.266-0.932-0.466-0.226-0.903-0.090-1.116 0.348l-0.871 1.79zM7.833 22.957c-0.405-0.453-0.464-1.045 0.095-1.543l1.685-1.504 0.453 0.505-1.542 1.377c-0.33 0.294-0.416 0.62-0.108 0.963 0.346 0.386 0.802 0.425 1.165 0.101l1.485-1.326 0.449 0.501-2.439 2.178-0.449-0.5 0.315-0.281-0.008-0.010c-0.307 0.042-0.724-0.041-1.1-0.46zM6.447 19.376l0.253 0.56 1.617-0.728c0.339-0.153 0.306-0.334 0.103-0.72l0.502-0.226c0.085 0.109 0.163 0.236 0.237 0.399 0.221 0.49 0.121 0.858-0.509 1.141l-1.669 0.752 0.196 0.431-0.502 0.226-0.195-0.432-0.94 0.423-0.279-0.618 0.939-0.423-0.253-0.56 0.501-0.226zM4.494 12.647l0.146-0.656 4.467 0.994-0.146 0.656-0.368-0.082-0.003 0.013c0.181 0.217 0.355 0.584 0.245 1.077-0.182 0.818-0.955 1.283-2.004 1.049s-1.552-0.981-1.37-1.799c0.11-0.493 0.411-0.755 0.692-0.869l0.003-0.012-1.662-0.37zM8.322 14.417c0.12-0.537-0.25-0.967-0.956-1.124-0.713-0.158-1.223 0.076-1.343 0.613-0.128 0.574 0.329 0.997 0.953 1.136s1.218-0.050 1.346-0.625zM6.102 10.748c-0.089 0.163-0.293 0.27-0.495 0.161s-0.218-0.336-0.129-0.499c0.095-0.174 0.291-0.279 0.493-0.17s0.226 0.334 0.131 0.508zM6.428 11.303l0.321-0.59 2.875 1.559-0.321 0.59-2.875-1.559zM9.241 9.534c0.514-0.344 1.057-0.73 1.629-0.198 0.46 0.427 0.379 1.086-0.163 1.666-0.72 0.772-1.391 0.769-1.919 0.322l0.445-0.477c0.279 0.216 0.605 0.308 1.076-0.197 0.318-0.341 0.285-0.643 0.135-0.782-0.3-0.279-0.59-0.015-1.002 0.257-0.443 0.297-0.997 0.741-1.541 0.236-0.394-0.366-0.385-1.004 0.174-1.603 0.607-0.651 1.246-0.633 1.694-0.277l-0.445 0.477c-0.219-0.141-0.498-0.227-0.856 0.157-0.275 0.294-0.31 0.558-0.142 0.715 0.244 0.227 0.511-0.023 0.914-0.295z"></path>
      <path fill="#fafafa" style="fill: var(--color2, #fafafa)" d="M12.396 7.25c-0.172-0.286-0.542-0.552-1.057-0.294-0.59 0.294-0.589 0.924-0.314 1.473s0.774 0.929 1.37 0.632c0.515-0.258 0.526-0.707 0.386-1.044l0.601-0.3c0.293 0.698 0.021 1.456-0.74 1.836-0.876 0.437-1.758 0.092-2.218-0.823-0.459-0.915-0.208-1.828 0.662-2.262 0.762-0.38 1.504-0.143 1.911 0.483l-0.601 0.3zM15.372 8.765c-1.021 0.075-1.693-0.589-1.767-1.604s0.492-1.769 1.514-1.843c1.021-0.075 1.693 0.589 1.767 1.604s-0.492 1.769-1.514 1.843zM15.331 8.217c0.638-0.046 0.933-0.575 0.884-1.245-0.050-0.677-0.418-1.15-1.057-1.104s-0.933 0.569-0.884 1.245c0.050 0.67 0.419 1.15 1.057 1.104zM19.919 6.106l0.638 0.21-1.027 3.105-0.638-0.21 0.133-0.401-0.012-0.004c-0.244 0.189-0.647 0.326-1.182 0.149-0.577-0.19-0.923-0.675-0.688-1.386l0.709-2.145 0.644 0.213-0.649 1.963c-0.139 0.419-0.051 0.745 0.387 0.889 0.492 0.163 0.907-0.031 1.060-0.493l0.625-1.89zM23.143 8.004c0.461 0.396 0.596 0.975 0.108 1.542l-1.473 1.713-0.515-0.442 1.348-1.567c0.288-0.335 0.331-0.669-0.019-0.969-0.394-0.338-0.851-0.316-1.168 0.052l-1.298 1.509-0.51-0.437 2.132-2.479 0.51 0.437-0.276 0.32 0.010 0.009c0.298-0.082 0.723-0.055 1.15 0.311zM24.983 11.342l-0.326-0.521-1.504 0.939c-0.315 0.196-0.258 0.372-0.005 0.727l-0.467 0.291c-0.108-0.107-0.203-0.225-0.283-0.354l-0.005-0.008c-0.286-0.456-0.236-0.834 0.35-1.2l1.553-0.969-0.251-0.402 0.467-0.291 0.252 0.402 0.874-0.546 0.36 0.575-0.874 0.545 0.326 0.521-0.467 0.291zM17.556 14.756c-2.8 0.622-3.453 2.541-4.101 4.15l0.588 0.205 0.295-0.715c0.149 0.053 0.305 0.093 0.417 0.093 3.422 0 4.355-5.289 4.355-5.289-0.311 0.622-2.489 0.7-4.044 1.011s-2.178 1.633-2.178 2.255c0 0.622 0.544 1.167 0.544 1.167 1.011-2.878 4.123-2.878 4.123-2.878z"></path>
    </symbol>
    <symbol id="icon-close-btn" viewBox="0 0 32 32">
      <path d="M31.429 4.16l-3.588-3.588-11.84 11.84-11.84-11.84-3.588 3.588 11.84 11.84-11.84 11.84 3.588 3.588 11.84-11.84 11.84 11.84 3.588-3.588-11.84-11.84 11.84-11.84z"></path>
    </symbol>
    <symbol id="icon-chevron-down" viewBox="0 0 48 32">
      <path stroke-linejoin="round" stroke-linecap="round" stroke-miterlimit="4" stroke-width="8" d="M4 6l20 20 20-20"></path>
    </symbol>
  </defs>
</svg>
