<svg aria-hidden="true" style="position:absolute;width:0;height:0;overflow:hidden" xmlns="http://www.w3.org/2000/svg">
  <defs>
    <symbol id="icon-Icon-2" viewBox="0 0 41 32">
      <path fill="none" stroke="#e8e8e2" style="stroke:var(--color1, #e8e8e2)" stroke-linejoin="round" stroke-linecap="round" stroke-width="5.818" d="m37.818 4.364-24 24L2.909 17.455"/>
    </symbol>
    <symbol id="icon-logo-mobile-w" viewBox="0 0 176 32">
      <path fill="#e8e8e2" style="fill:var(--color1, #e8e8e2)" d="M32 16c0 8.837-7.163 16-16 16S0 24.837 0 16 7.163 0 16 0s16 7.163 16 16z"/>
      <path fill="#6d8434" style="fill:var(--color2, #6d8434)" d="M16.849 9.499a3.066 3.066 0 0 0-1.038-.975c-1.149-.659-2.629-.543-3.995.222C9.28 10.167 7.619 12.838 7.619 16c0 4.221 3.055 7.629 7.045 8.274.436.07.881.107 1.336.107a8.35 8.35 0 0 0 8.381-8.446c-.018-1.472-.608-3.278-1.541-4.722-.93-1.438-2.359-2.749-4.135-2.732-.867.002-1.459.478-1.855 1.019v-.001zm5.071 3.158a3.605 3.605 0 0 0-.962-.025l-.884-1.486-1.309.777.68 1.143a5.188 5.188 0 0 0-.811.476.566.566 0 0 0-.014-.044c-.203-.617-.597-1.124-1.121-1.627l.003-.015c.053-.246.136-.564.262-.872.284-.698.614-.981.945-.981h.008c.984-.011 2.008.744 2.843 2.035.13.2.25.407.361.619l-.001.001zm-4.694 2.284a4.05 4.05 0 0 0-.762.089 2.867 2.867 0 0 0-.809-.872 2.454 2.454 0 0 0-2.318-.299 11.947 11.947 0 0 0-.247-.138l2.463-2.414-1.067-1.088-2.922 2.864c-.617-.179-1.194-.243-1.712-.171a6.63 6.63 0 0 1 2.708-2.836c1.039-.582 1.933-.55 2.492-.229.533.306.976.999.865 2.238l-.034.383.288.255c.626.554.887.912 1 1.254.079.24.105.53.054.965zm-2.141.766c-.651.545-1.087 1.309-1.341 2.135l-2.266-2.488-1.127 1.027 3.115 3.419c-.004.908.113 1.838.282 2.678a6.822 6.822 0 0 1-4.606-6.479c0-.792.22-1.224.479-1.413.245-.18.782-.327 1.882.079.398.147.858.373 1.384.7l.382.238.393-.221c.475-.267.837-.172 1.115.023.122.085.226.192.306.301zm1.345 7.136 5.556-6.123-1.128-1.024-2.234 2.462.005-.773-1.524-.011-.018 2.476-1.892 2.085c-.143-.778-.229-1.614-.201-2.398.049-1.337.583-2.436 1.373-2.871.328-.181.906-.251 1.363-.171l.678.118.187-.662c.098-.345.356-.715.76-1.044.41-.331.887-.569 1.397-.698.61-.149 1.131-.072 1.474.165.299.206.6.626.629 1.489v.014l.002.122a6.822 6.822 0 0 1-6.427 6.843z"/>
      <path fill="#e8e8e2" style="fill:var(--color1, #e8e8e2)" d="M41.76 22.034c1.008-.123 1.563-.576 1.563-1.378v-8.373c0-.802-.555-1.275-1.563-1.378v-.823h10.45c.185 0 .267.062.288.206.062.617.103 1.234.432 2.736h-.514c-.72-1.255-1.337-1.913-2.551-1.913h-1.749c-.926 0-1.317.514-1.317 1.337v2.16c0 .823.391 1.275 1.317 1.275h.823c1.666 0 1.975-.391 2.139-1.317h.453v3.662h-.453c-.165-.864-.473-1.296-2.139-1.296h-.823c-.926 0-1.317.453-1.317 1.275v2.448c0 .802.555 1.255 1.769 1.378v.823h-6.809v-.823zm16.362.947c-2.53 0-5.102-1.522-5.102-4.855 0-3.312 2.571-4.731 5.04-4.731 2.551 0 5.102 1.522 5.102 4.855 0 3.312-2.551 4.731-5.04 4.731zm-1.81-5.76c0 2.551.843 4.814 2.16 4.814.802 0 1.399-.802 1.399-2.921 0-2.53-.802-4.793-2.16-4.793-.823 0-1.399.823-1.399 2.901zm12.87 5.76c-2.53 0-5.102-1.522-5.102-4.855 0-3.312 2.571-4.731 5.04-4.731 2.551 0 5.102 1.522 5.102 4.855 0 3.312-2.551 4.731-5.04 4.731zm-1.811-5.76c0 2.551.843 4.814 2.16 4.814.802 0 1.399-.802 1.399-2.921 0-2.53-.802-4.793-2.16-4.793-.823 0-1.399.823-1.399 2.901zm11.698 5.76c-1.934 0-3.929-1.584-3.929-4.629 0-3.271 2.242-4.958 4.423-4.958 2.263 0 2.859 1.769 2.859-.309v-1.234c0-.967-.535-1.131-1.296-1.07v-.802l3.353-.555c.699-.103 1.029.206 1.029.823v10.512c0 .679.267 1.131.864.885v.453c-.288.699-1.029.885-1.666.885-.699 0-1.584-.226-1.831-.843-.165-.391-.35-.597-.658-.597-.411 0-1.234 1.44-3.147 1.44zm-.617-5.699c0 2.037.905 4.032 2.222 4.032.802 0 1.749-.576 1.749-2.304v-.967c0-2.674-1.255-3.723-2.283-3.723-1.049 0-1.687 1.296-1.687 2.962zm12.237 4.752c1.008-.123 1.563-.576 1.563-1.378v-8.352c0-.823-.555-1.296-1.563-1.399v-.823h6.357c4.032 0 6.027.967 6.027 3.045 0 1.173-.679 2.325-3.024 2.695 2.633.37 3.765 1.605 3.765 3.353 0 2.386-2.119 3.682-4.999 3.682-1.646 0-5.143-.514-8.126 0v-.823zm5.041-1.069c0 .535.329.782.926.782h.72c1.563 0 2.736-.597 2.736-2.592 0-1.934-1.193-2.777-3.456-2.777-.535 0-.926.411-.926 1.234v3.353zm0-6.81c0 .823.391 1.234 1.317 1.234h.535c1.419 0 1.79-1.111 1.79-2.057 0-1.44-.782-2.242-2.119-2.242h-.206c-.926 0-1.317.432-1.317 1.255v1.81zm14.114 8.826c-2.53 0-5.102-1.522-5.102-4.855 0-3.312 2.571-4.731 5.04-4.731 2.551 0 5.102 1.522 5.102 4.855 0 3.312-2.551 4.731-5.041 4.731zm-1.81-5.76c0 2.551.843 4.814 2.16 4.814.802 0 1.399-.802 1.399-2.921 0-2.53-.802-4.793-2.16-4.793-.823 0-1.399.823-1.399 2.901zm11.321 5.76c-1.44 0-3.003-.597-3.003-3.826v-3.271c0-.946-.535-1.111-1.296-1.09v-.802l3.353-.555c.699-.103 1.029.206 1.029.823v4.402c0 1.44.597 2.469 1.707 2.469 1.131 0 1.707-1.029 1.707-2.469v-2.777c0-.946-.535-1.111-1.296-1.09v-.802l3.333-.555c.72-.103 1.049.206 1.049.823v6.501c0 .679.267 1.131.864.885v.453c-.288.699-1.029.885-1.728.885-1.481 0-1.893-.926-1.995-1.378-.062-.288-.226-.432-.37-.432s-.247.123-.35.267c-.576.782-1.378 1.543-3.003 1.543zm12.268-.021c-1.893 0-3.045-1.049-3.045-3.045V15.41c0-.72-.165-.864-.638-.864h-.926v-.658c1.707-.391 2.53-1.173 3.23-2.304.165-.267.309-.35.576-.35h.37c.309 0 .494.185.494.494l-.021 1.275c0 .453.226.576 1.275.576h1.337v1.09l-1.337-.082c-1.049-.062-1.275.123-1.275.864v4.361c0 1.131.123 1.893 1.131 1.893.267 0 .679-.041 1.07-.329.267.329.37.617.103.864-.473.411-1.317.72-2.345.72zm3.483-.905c.946-.062 1.296-.37 1.296-1.481v-4.711c0-.967-.535-1.131-1.275-1.07v-.802l3.333-.555c.699-.103 1.029.206 1.029.823v6.315c0 1.111.35 1.419 1.275 1.481v.802h-5.657v-.802zm.803-11.212c0-.987.823-1.749 1.79-1.749.946 0 1.749.761 1.749 1.749s-.802 1.749-1.749 1.749c-.967 0-1.79-.761-1.79-1.749zm10.997 15.141c1.173-.082 1.522-.391 1.522-1.419v-2.201c0-.37-.185-.494-.37-.494a.406.406 0 0 0-.288.123c-.411.411-1.296.987-2.592.987-2.119 0-4.073-1.563-4.073-4.587 0-3.291 2.283-4.999 4.649-4.999 2.057 0 2.921 1.255 3.682 1.255.72 0 1.008-1.234 1.584-1.234.37 0 .494.206.494.494v10.656c0 1.029.35 1.337 1.275 1.419v.782h-5.883v-.782zm-2.489-8.722c0 2.037.864 4.053 2.304 4.053.782 0 1.687-.576 1.707-2.88-.021-3.086-1.296-4.114-2.325-4.114-1.111 0-1.687 1.296-1.687 2.942zm12.367 5.719c-1.44 0-3.003-.597-3.003-3.826v-3.271c0-.946-.535-1.111-1.296-1.09v-.802l3.353-.555c.699-.103 1.029.206 1.029.823v4.402c0 1.44.597 2.469 1.707 2.469 1.131 0 1.707-1.029 1.707-2.469v-2.777c0-.946-.535-1.111-1.296-1.09v-.802l3.333-.555c.72-.103 1.049.206 1.049.823v6.501c0 .679.267 1.131.864.885v.453c-.288.699-1.029.885-1.728.885-1.481 0-1.893-.926-1.995-1.378-.062-.288-.226-.432-.37-.432s-.247.123-.35.267c-.576.782-1.378 1.543-3.003 1.543zm13.391 0c-2.571 0-5.122-1.481-5.122-4.711 0-3.374 2.757-4.875 5.307-4.875 2.181 0 3.95 1.09 3.95 2.901 0 1.851-1.79 1.954-3.6 2.098l-1.605.123c-.35.021-.535.185-.535.658 0 1.522 1.646 2.201 3.003 2.201.72 0 1.707-.206 2.448-1.049l.617.555c-.391.802-2.057 2.098-4.464 2.098zm-1.749-6.151c0 .597.144.905.679.885l.741-.082c1.419-.144 1.707-.514 1.707-1.317 0-.987-.411-1.975-1.481-1.975-1.337 0-1.646 1.502-1.646 2.489z"/>
    </symbol>
    <symbol id="icon-logo-desc-tablet-w" viewBox="0 0 197 32">
      <path fill="#e8e8e2" style="fill:var(--color1, #e8e8e2)" d="M32 16c0 8.837-7.163 16-16 16S0 24.837 0 16 7.163 0 16 0s16 7.163 16 16z"/>
      <path fill="#6d8434" style="fill:var(--color2, #6d8434)" d="M16.93 8.89a3.363 3.363 0 0 0-1.136-1.067c-1.257-.721-2.876-.594-4.37.243C8.65 9.62 6.833 12.542 6.833 16c0 4.617 3.342 8.344 7.706 9.05.477.077.964.117 1.461.117a9.128 9.128 0 0 0 6.516-2.701 9.142 9.142 0 0 0 2.651-6.537c-.019-1.61-.665-3.586-1.686-5.165-1.017-1.573-2.58-3.007-4.523-2.988-.948.002-1.596.523-2.028 1.115V8.89zm5.546 3.454a3.944 3.944 0 0 0-1.052-.027l-.967-1.625-1.432.85.743 1.25a5.631 5.631 0 0 0-.887.521l-.015-.048c-.223-.675-.652-1.229-1.226-1.78l.003-.017c.058-.269.149-.617.287-.954.311-.763.672-1.073 1.033-1.073h.009c1.076-.012 2.197.814 3.109 2.226a8.6 8.6 0 0 1 .395.677l-.001.001zm-5.134 2.498a4.382 4.382 0 0 0-.833.098 3.127 3.127 0 0 0-.885-.954 2.683 2.683 0 0 0-2.535-.328 11.72 11.72 0 0 0-.27-.151l2.694-2.641-1.167-1.19-3.196 3.133c-.675-.196-1.306-.266-1.872-.188a7.257 7.257 0 0 1 2.962-3.102c1.137-.637 2.114-.602 2.726-.251.583.334 1.068 1.093.946 2.448l-.037.419.315.279c.685.606.97.998 1.093 1.372.087.262.115.58.059 1.056zM15 15.679c-.712.596-1.189 1.432-1.467 2.335l-2.478-2.721-1.232 1.123 3.407 3.74c-.004.993.123 2.01.308 2.929A7.46 7.46 0 0 1 8.5 15.999c0-.867.241-1.339.524-1.546.268-.197.855-.357 2.058.087.435.161.938.408 1.514.766l.418.26.43-.242c.519-.292.916-.188 1.22.025.133.093.248.21.335.329zm1.471 7.806 6.077-6.697-1.234-1.12-2.443 2.692.006-.845-1.667-.012-.019 2.708-2.069 2.281c-.157-.851-.25-1.765-.22-2.622.053-1.462.637-2.664 1.502-3.14.358-.198.991-.275 1.491-.187l.742.129.204-.724c.107-.377.389-.782.831-1.142a3.97 3.97 0 0 1 1.528-.763c.668-.163 1.237-.078 1.612.18.328.225.657.685.688 1.628v.015l.003.133a7.468 7.468 0 0 1-7.029 7.485z"/>
      <path fill="#e8e8e2" style="fill:var(--color1, #e8e8e2)" d="M40.72 23.04c1.176-.144 1.824-.672 1.824-1.608v-9.768c0-.936-.648-1.488-1.824-1.608v-.96h12.192c.216 0 .312.072.336.24.072.72.12 1.44.504 3.192h-.6c-.84-1.464-1.56-2.232-2.976-2.232h-2.04c-1.08 0-1.536.6-1.536 1.56v2.52c0 .96.456 1.488 1.536 1.488h.96c1.944 0 2.304-.456 2.496-1.536h.528V18.6h-.528c-.192-1.008-.552-1.512-2.496-1.512h-.96c-1.08 0-1.536.528-1.536 1.488v2.856c0 .936.648 1.464 2.064 1.608V24H40.72v-.96zm19.089 1.104c-2.952 0-5.952-1.776-5.952-5.664 0-3.864 3-5.52 5.88-5.52 2.976 0 5.952 1.776 5.952 5.664 0 3.864-2.976 5.52-5.88 5.52zm-2.112-6.72c0 2.976.984 5.616 2.52 5.616.936 0 1.632-.936 1.632-3.408 0-2.952-.936-5.592-2.52-5.592-.96 0-1.632.96-1.632 3.384zm15.015 6.72c-2.952 0-5.952-1.776-5.952-5.664 0-3.864 3-5.52 5.88-5.52 2.976 0 5.952 1.776 5.952 5.664 0 3.864-2.976 5.52-5.88 5.52zm-2.112-6.72c0 2.976.984 5.616 2.52 5.616.936 0 1.632-.936 1.632-3.408 0-2.952-.936-5.592-2.52-5.592-.96 0-1.632.96-1.632 3.384zm13.647 6.72c-2.256 0-4.584-1.848-4.584-5.4 0-3.816 2.616-5.784 5.16-5.784 2.64 0 3.336 2.064 3.336-.36v-1.44c0-1.128-.624-1.32-1.512-1.248v-.936l3.912-.648c.816-.12 1.2.24 1.2.96v12.264c0 .792.312 1.32 1.008 1.032v.528c-.336.816-1.2 1.032-1.944 1.032-.816 0-1.848-.264-2.136-.984-.192-.456-.408-.696-.768-.696-.48 0-1.44 1.68-3.672 1.68zm-.72-6.648c0 2.376 1.056 4.704 2.592 4.704.936 0 2.04-.672 2.04-2.688v-1.128c0-3.12-1.464-4.344-2.664-4.344-1.224 0-1.968 1.512-1.968 3.456zm14.277 5.544c1.176-.144 1.824-.672 1.824-1.608v-9.744c0-.96-.648-1.512-1.824-1.632v-.96h7.416c4.704 0 7.032 1.128 7.032 3.552 0 1.368-.792 2.712-3.528 3.144 3.072.432 4.392 1.872 4.392 3.912 0 2.784-2.472 4.296-5.832 4.296-1.92 0-6-.6-9.48 0v-.96zm5.88-1.248c0 .624.384.912 1.08.912h.84c1.824 0 3.192-.696 3.192-3.024 0-2.256-1.392-3.24-4.032-3.24-.624 0-1.08.48-1.08 1.44v3.912zm0-7.944c0 .96.456 1.44 1.536 1.44h.624c1.656 0 2.088-1.296 2.088-2.4 0-1.68-.912-2.616-2.472-2.616h-.24c-1.08 0-1.536.504-1.536 1.464v2.112zm16.467 10.296c-2.952 0-5.952-1.776-5.952-5.664 0-3.864 3-5.52 5.88-5.52 2.976 0 5.952 1.776 5.952 5.664 0 3.864-2.976 5.52-5.88 5.52zm-2.112-6.72c0 2.976.984 5.616 2.52 5.616.936 0 1.632-.936 1.632-3.408 0-2.952-.936-5.592-2.52-5.592-.96 0-1.632.96-1.632 3.384zm13.209 6.72c-1.68 0-3.504-.696-3.504-4.464v-3.816c0-1.104-.624-1.296-1.512-1.272v-.936l3.912-.648c.816-.12 1.2.24 1.2.96v5.136c0 1.68.696 2.88 1.992 2.88 1.32 0 1.992-1.2 1.992-2.88v-3.24c0-1.104-.624-1.296-1.512-1.272v-.936l3.888-.648c.84-.12 1.224.24 1.224.96v7.584c0 .792.312 1.32 1.008 1.032v.528c-.336.816-1.2 1.032-2.016 1.032-1.728 0-2.208-1.08-2.328-1.608-.072-.336-.264-.504-.432-.504s-.288.144-.408.312c-.672.912-1.608 1.8-3.504 1.8zm14.312-.024c-2.208 0-3.552-1.224-3.552-3.552v-5.256c0-.84-.192-1.008-.744-1.008h-1.08v-.768c1.992-.456 2.952-1.368 3.768-2.688.192-.312.36-.408.672-.408h.432c.36 0 .576.216.576.576l-.024 1.488c0 .528.264.672 1.488.672h1.56v1.272l-1.56-.096c-1.224-.072-1.488.144-1.488 1.008v5.088c0 1.32.144 2.208 1.32 2.208.312 0 .792-.048 1.248-.384.312.384.432.72.12 1.008-.552.48-1.536.84-2.736.84zm4.064-1.056c1.104-.072 1.512-.432 1.512-1.728V15.84c0-1.128-.624-1.32-1.488-1.248v-.936l3.888-.648c.816-.12 1.2.24 1.2.96v7.368c0 1.296.408 1.656 1.488 1.728V24h-6.6v-.936zm.936-13.08c0-1.152.96-2.04 2.088-2.04 1.104 0 2.04.888 2.04 2.04s-.936 2.04-2.04 2.04c-1.128 0-2.088-.888-2.088-2.04zm12.831 17.664c1.368-.096 1.776-.456 1.776-1.656v-2.568c0-.432-.216-.576-.432-.576-.12 0-.24.048-.336.144-.48.48-1.512 1.152-3.024 1.152-2.472 0-4.752-1.824-4.752-5.352 0-3.84 2.664-5.832 5.424-5.832 2.4 0 3.408 1.464 4.296 1.464.84 0 1.176-1.44 1.848-1.44.432 0 .576.24.576.576v12.432c0 1.2.408 1.56 1.488 1.656v.912h-6.864v-.912zm-2.904-10.176c0 2.376 1.008 4.728 2.688 4.728.912 0 1.968-.672 1.992-3.36-.024-3.6-1.512-4.8-2.712-4.8-1.296 0-1.968 1.512-1.968 3.432zm14.427 6.672c-1.68 0-3.504-.696-3.504-4.464v-3.816c0-1.104-.624-1.296-1.512-1.272v-.936l3.912-.648c.816-.12 1.2.24 1.2.96v5.136c0 1.68.696 2.88 1.992 2.88 1.32 0 1.992-1.2 1.992-2.88v-3.24c0-1.104-.624-1.296-1.512-1.272v-.936l3.888-.648c.84-.12 1.224.24 1.224.96v7.584c0 .792.312 1.32 1.008 1.032v.528c-.336.816-1.2 1.032-2.016 1.032-1.728 0-2.208-1.08-2.328-1.608-.072-.336-.264-.504-.432-.504s-.288.144-.408.312c-.672.912-1.608 1.8-3.504 1.8zm15.624 0c-3 0-5.976-1.728-5.976-5.496 0-3.936 3.216-5.688 6.192-5.688 2.544 0 4.608 1.272 4.608 3.384 0 2.16-2.088 2.28-4.2 2.448l-1.872.144c-.408.024-.624.216-.624.768 0 1.776 1.92 2.568 3.504 2.568.84 0 1.992-.24 2.856-1.224l.72.648c-.456.936-2.4 2.448-5.208 2.448zm-2.04-7.176c0 .696.168 1.056.792 1.032l.864-.096c1.656-.168 1.992-.6 1.992-1.536 0-1.152-.48-2.304-1.728-2.304-1.56 0-1.92 1.752-1.92 2.904z"/>
    </symbol>
    <symbol id="icon-logo-desc-tablet" viewBox="0 0 196 32">
      <path fill="#6d8434" style="fill:var(--color2, #6d8434)" d="M32 16c0 8.837-7.163 16-16 16S0 24.837 0 16 7.163 0 16 0s16 7.163 16 16z"/>
      <path fill="#e8e8e2" style="fill:var(--color1, #e8e8e2)" d="M16.93 8.89a3.363 3.363 0 0 0-1.136-1.067c-1.257-.721-2.876-.594-4.37.243C8.65 9.62 6.833 12.542 6.833 16c0 4.617 3.342 8.344 7.706 9.05.477.077.964.117 1.461.117a9.128 9.128 0 0 0 6.516-2.701 9.142 9.142 0 0 0 2.651-6.537c-.019-1.61-.665-3.586-1.686-5.165-1.017-1.573-2.58-3.007-4.523-2.988-.948.002-1.596.523-2.028 1.115V8.89zm5.546 3.454a3.944 3.944 0 0 0-1.052-.027l-.967-1.625-1.432.85.743 1.25a5.631 5.631 0 0 0-.887.521l-.015-.048c-.223-.675-.652-1.229-1.226-1.78l.003-.017c.058-.269.149-.617.287-.954.311-.763.672-1.073 1.033-1.073h.009c1.076-.012 2.197.814 3.109 2.226a8.6 8.6 0 0 1 .395.677l-.001.001zm-5.134 2.498a4.382 4.382 0 0 0-.833.098 3.127 3.127 0 0 0-.885-.954 2.683 2.683 0 0 0-2.535-.328 11.72 11.72 0 0 0-.27-.151l2.694-2.641-1.167-1.19-3.196 3.133c-.675-.196-1.306-.266-1.872-.188a7.257 7.257 0 0 1 2.962-3.102c1.137-.637 2.114-.602 2.726-.251.583.334 1.068 1.093.946 2.448l-.037.419.315.279c.685.606.97.998 1.093 1.372.087.262.115.58.059 1.056zM15 15.679c-.712.596-1.189 1.432-1.467 2.335l-2.478-2.721-1.232 1.123 3.407 3.74c-.004.993.123 2.01.308 2.929A7.46 7.46 0 0 1 8.5 15.999c0-.867.241-1.339.524-1.546.268-.197.855-.357 2.058.087.435.161.938.408 1.514.766l.418.26.43-.242c.519-.292.916-.188 1.22.025.133.093.248.21.335.329zm1.471 7.806 6.077-6.697-1.234-1.12-2.443 2.692.006-.845-1.667-.012-.019 2.708-2.069 2.281c-.157-.851-.25-1.765-.22-2.622.053-1.462.637-2.664 1.502-3.14.358-.198.991-.275 1.491-.187l.742.129.204-.724c.107-.377.389-.782.831-1.142a3.97 3.97 0 0 1 1.528-.763c.668-.163 1.237-.078 1.612.18.328.225.657.685.688 1.628v.015l.003.133a7.468 7.468 0 0 1-7.029 7.485z"/>
      <path fill="#010101" style="fill:var(--color3, #010101)" d="M40 20.788c1.176-.144 1.824-.672 1.824-1.608V9.412c0-.936-.648-1.488-1.824-1.608v-.96h12.192c.216 0 .312.072.336.24.072.72.12 1.44.504 3.192h-.6c-.84-1.464-1.56-2.232-2.976-2.232h-2.04c-1.08 0-1.536.6-1.536 1.56v2.52c0 .96.456 1.488 1.536 1.488h.96c1.944 0 2.304-.456 2.496-1.536h.528v4.272h-.528c-.192-1.008-.552-1.512-2.496-1.512h-.96c-1.08 0-1.536.528-1.536 1.488v2.856c0 .936.648 1.464 2.064 1.608v.96H40v-.96zM59.089 21.892c-2.952 0-5.952-1.776-5.952-5.664 0-3.864 3-5.52 5.88-5.52 2.976 0 5.952 1.776 5.952 5.664 0 3.864-2.976 5.52-5.88 5.52zm-2.112-6.72c0 2.976.984 5.616 2.52 5.616.936 0 1.632-.936 1.632-3.408 0-2.952-.936-5.592-2.52-5.592-.96 0-1.632.96-1.632 3.384zM71.992 21.892c-2.952 0-5.952-1.776-5.952-5.664 0-3.864 3-5.52 5.88-5.52 2.976 0 5.952 1.776 5.952 5.664 0 3.864-2.976 5.52-5.88 5.52zm-2.112-6.72c0 2.976.984 5.616 2.52 5.616.936 0 1.632-.936 1.632-3.408 0-2.952-.936-5.592-2.52-5.592-.96 0-1.632.96-1.632 3.384zM83.527 21.892c-2.256 0-4.584-1.848-4.584-5.4 0-3.816 2.616-5.784 5.16-5.784 2.64 0 3.336 2.064 3.336-.36v-1.44c0-1.128-.624-1.32-1.512-1.248v-.936l3.912-.648c.816-.12 1.2.24 1.2.96V19.3c0 .792.312 1.32 1.008 1.032v.528c-.336.816-1.2 1.032-1.944 1.032-.816 0-1.848-.264-2.136-.984-.192-.456-.408-.696-.768-.696-.48 0-1.44 1.68-3.672 1.68zm-.72-6.648c0 2.376 1.056 4.704 2.592 4.704.936 0 2.04-.672 2.04-2.688v-1.128c0-3.12-1.464-4.344-2.664-4.344-1.224 0-1.968 1.512-1.968 3.456zM97.084 20.788c1.176-.144 1.824-.672 1.824-1.608V9.436c0-.96-.648-1.512-1.824-1.632v-.96h7.416c4.704 0 7.032 1.128 7.032 3.552 0 1.368-.792 2.712-3.528 3.144 3.072.432 4.392 1.872 4.392 3.912 0 2.784-2.472 4.296-5.832 4.296-1.92 0-6-.6-9.48 0v-.96zm5.88-1.248c0 .624.384.912 1.08.912h.84c1.824 0 3.192-.696 3.192-3.024 0-2.256-1.392-3.24-4.032-3.24-.624 0-1.08.48-1.08 1.44v3.912zm0-7.944c0 .96.456 1.44 1.536 1.44h.624c1.656 0 2.088-1.296 2.088-2.4 0-1.68-.912-2.616-2.472-2.616h-.24c-1.08 0-1.536.504-1.536 1.464v2.112zM119.431 21.892c-2.952 0-5.952-1.776-5.952-5.664 0-3.864 3-5.52 5.88-5.52 2.976 0 5.952 1.776 5.952 5.664 0 3.864-2.976 5.52-5.88 5.52zm-2.112-6.72c0 2.976.984 5.616 2.52 5.616.936 0 1.632-.936 1.632-3.408 0-2.952-.936-5.592-2.52-5.592-.96 0-1.632.96-1.632 3.384zM130.528 21.892c-1.68 0-3.504-.696-3.504-4.464v-3.816c0-1.104-.624-1.296-1.512-1.272v-.936l3.912-.648c.816-.12 1.2.24 1.2.96v5.136c0 1.68.696 2.88 1.992 2.88 1.32 0 1.992-1.2 1.992-2.88v-3.24c0-1.104-.624-1.296-1.512-1.272v-.936l3.888-.648c.84-.12 1.224.24 1.224.96V19.3c0 .792.312 1.32 1.008 1.032v.528c-.336.816-1.2 1.032-2.016 1.032-1.728 0-2.208-1.08-2.328-1.608-.072-.336-.264-.504-.432-.504s-.288.144-.408.312c-.672.912-1.608 1.8-3.504 1.8zM144.84 21.868c-2.208 0-3.552-1.224-3.552-3.552V13.06c0-.84-.192-1.008-.744-1.008h-1.08v-.768c1.992-.456 2.952-1.368 3.768-2.688.192-.312.36-.408.672-.408h.432c.36 0 .576.216.576.576l-.024 1.488c0 .528.264.672 1.488.672h1.56v1.272l-1.56-.096c-1.224-.072-1.488.144-1.488 1.008v5.088c0 1.32.144 2.208 1.32 2.208.312 0 .792-.048 1.248-.384.312.384.432.72.12 1.008-.552.48-1.536.84-2.736.84zM148.904 20.812c1.104-.072 1.512-.432 1.512-1.728v-5.496c0-1.128-.624-1.32-1.488-1.248v-.936l3.888-.648c.816-.12 1.2.24 1.2.96v7.368c0 1.296.408 1.656 1.488 1.728v.936h-6.6v-.936zm.936-13.08c0-1.152.96-2.04 2.088-2.04 1.104 0 2.04.888 2.04 2.04s-.936 2.04-2.04 2.04c-1.128 0-2.088-.888-2.088-2.04zM162.671 25.396c1.368-.096 1.776-.456 1.776-1.656v-2.568c0-.432-.216-.576-.432-.576-.12 0-.24.048-.336.144-.48.48-1.512 1.152-3.024 1.152-2.472 0-4.752-1.824-4.752-5.352 0-3.84 2.664-5.832 5.424-5.832 2.4 0 3.408 1.464 4.296 1.464.84 0 1.176-1.44 1.848-1.44.432 0 .576.24.576.576V23.74c0 1.2.408 1.56 1.488 1.656v.912h-6.864v-.912zm-2.904-10.176c0 2.376 1.008 4.728 2.688 4.728.912 0 1.968-.672 1.992-3.36-.024-3.6-1.512-4.8-2.712-4.8-1.296 0-1.968 1.512-1.968 3.432zM174.194 21.892c-1.68 0-3.504-.696-3.504-4.464v-3.816c0-1.104-.624-1.296-1.512-1.272v-.936l3.912-.648c.816-.12 1.2.24 1.2.96v5.136c0 1.68.696 2.88 1.992 2.88 1.32 0 1.992-1.2 1.992-2.88v-3.24c0-1.104-.624-1.296-1.512-1.272v-.936l3.888-.648c.84-.12 1.224.24 1.224.96V19.3c0 .792.312 1.32 1.008 1.032v.528c-.336.816-1.2 1.032-2.016 1.032-1.728 0-2.208-1.08-2.328-1.608-.072-.336-.264-.504-.432-.504s-.288.144-.408.312c-.672.912-1.608 1.8-3.504 1.8zM189.818 21.892c-3 0-5.976-1.728-5.976-5.496 0-3.936 3.216-5.688 6.192-5.688 2.544 0 4.608 1.272 4.608 3.384 0 2.16-2.088 2.28-4.2 2.448l-1.872.144c-.408.024-.624.216-.624.768 0 1.776 1.92 2.568 3.504 2.568.84 0 1.992-.24 2.856-1.224l.72.648c-.456.936-2.4 2.448-5.208 2.448zm-2.04-7.176c0 .696.168 1.056.792 1.032l.864-.096c1.656-.168 1.992-.6 1.992-1.536 0-1.152-.48-2.304-1.728-2.304-1.56 0-1.92 1.752-1.92 2.904z"/>
    </symbol>
    <symbol id="icon-logo-mobile" viewBox="0 0 175 32">
      <path fill="#6d8434" style="fill:var(--color2, #6d8434)" d="M32 16c0 8.837-7.163 16-16 16S0 24.837 0 16 7.163 0 16 0s16 7.163 16 16z"/>
      <path fill="#e8e8e2" style="fill:var(--color1, #e8e8e2)" d="M16.849 9.499a3.066 3.066 0 0 0-1.038-.975c-1.149-.659-2.629-.543-3.995.222C9.28 10.167 7.619 12.838 7.619 16c0 4.221 3.055 7.629 7.045 8.274.436.07.881.107 1.336.107a8.35 8.35 0 0 0 8.381-8.446c-.018-1.472-.608-3.278-1.541-4.722-.93-1.438-2.359-2.749-4.135-2.732-.867.002-1.459.478-1.855 1.019v-.001zm5.071 3.158a3.605 3.605 0 0 0-.962-.025l-.884-1.486-1.309.777.68 1.143a5.188 5.188 0 0 0-.811.476.566.566 0 0 0-.014-.044c-.203-.617-.597-1.124-1.121-1.627l.003-.015c.053-.246.136-.564.262-.872.284-.698.614-.981.945-.981h.008c.984-.011 2.008.744 2.843 2.035.13.2.25.407.361.619l-.001.001zm-4.694 2.284a4.05 4.05 0 0 0-.762.089 2.867 2.867 0 0 0-.809-.872 2.454 2.454 0 0 0-2.318-.299 11.947 11.947 0 0 0-.247-.138l2.463-2.414-1.067-1.088-2.922 2.864c-.617-.179-1.194-.243-1.712-.171a6.63 6.63 0 0 1 2.708-2.836c1.039-.582 1.933-.55 2.492-.229.533.306.976.999.865 2.238l-.034.383.288.255c.626.554.887.912 1 1.254.079.24.105.53.054.965zm-2.141.766c-.651.545-1.087 1.309-1.341 2.135l-2.266-2.488-1.127 1.027 3.115 3.419c-.004.908.113 1.838.282 2.678a6.822 6.822 0 0 1-4.606-6.479c0-.792.22-1.224.479-1.413.245-.18.782-.327 1.882.079.398.147.858.373 1.384.7l.382.238.393-.221c.475-.267.837-.172 1.115.023.122.085.226.192.306.301zm1.345 7.136 5.556-6.123-1.128-1.024-2.234 2.462.005-.773-1.524-.011-.018 2.476-1.892 2.085c-.143-.778-.229-1.614-.201-2.398.049-1.337.583-2.436 1.373-2.871.328-.181.906-.251 1.363-.171l.678.118.187-.662c.098-.345.356-.715.76-1.044.41-.331.887-.569 1.397-.698.61-.149 1.131-.072 1.474.165.299.206.6.626.629 1.489v.014l.002.122a6.822 6.822 0 0 1-6.427 6.843z"/>
      <path fill="#010101" style="fill:var(--color3, #010101)" d="M41.143 20.104c1.008-.123 1.563-.576 1.563-1.378v-8.373c0-.802-.555-1.275-1.563-1.378v-.823h10.45c.185 0 .267.062.288.206.062.617.103 1.234.432 2.736h-.514c-.72-1.255-1.337-1.913-2.551-1.913h-1.749c-.926 0-1.317.514-1.317 1.337v2.16c0 .823.391 1.275 1.317 1.275h.823c1.666 0 1.975-.391 2.139-1.317h.453v3.662h-.453c-.165-.864-.473-1.296-2.139-1.296h-.823c-.926 0-1.317.453-1.317 1.275v2.448c0 .802.555 1.255 1.769 1.378v.823h-6.809v-.823zM57.505 21.05c-2.53 0-5.102-1.522-5.102-4.855 0-3.312 2.571-4.731 5.04-4.731 2.551 0 5.102 1.522 5.102 4.855 0 3.312-2.551 4.731-5.04 4.731zm-1.81-5.76c0 2.551.843 4.814 2.16 4.814.802 0 1.399-.802 1.399-2.921 0-2.53-.802-4.793-2.16-4.793-.823 0-1.399.823-1.399 2.901zM68.565 21.05c-2.53 0-5.102-1.522-5.102-4.855 0-3.312 2.571-4.731 5.04-4.731 2.551 0 5.102 1.522 5.102 4.855 0 3.312-2.551 4.731-5.04 4.731zm-1.811-5.76c0 2.551.843 4.814 2.16 4.814.802 0 1.399-.802 1.399-2.921 0-2.53-.802-4.793-2.16-4.793-.823 0-1.399.823-1.399 2.901zM78.452 21.05c-1.934 0-3.929-1.584-3.929-4.629 0-3.271 2.242-4.958 4.423-4.958 2.263 0 2.859 1.769 2.859-.309V9.92c0-.967-.535-1.131-1.296-1.07v-.802l3.353-.555c.699-.103 1.029.206 1.029.823v10.512c0 .679.267 1.131.864.885v.453c-.288.699-1.029.885-1.666.885-.699 0-1.584-.226-1.831-.843-.165-.391-.35-.597-.658-.597-.411 0-1.234 1.44-3.147 1.44zm-.618-5.698c0 2.037.905 4.032 2.222 4.032.802 0 1.749-.576 1.749-2.304v-.967c0-2.674-1.255-3.723-2.283-3.723-1.049 0-1.687 1.296-1.687 2.962zM90.072 20.104c1.008-.123 1.563-.576 1.563-1.378v-8.352c0-.823-.555-1.296-1.563-1.399v-.823h6.357c4.032 0 6.027.967 6.027 3.045 0 1.173-.679 2.325-3.024 2.695 2.633.37 3.765 1.605 3.765 3.353 0 2.386-2.119 3.682-4.999 3.682-1.646 0-5.143-.514-8.126 0v-.823zm5.04-1.07c0 .535.329.782.926.782h.72c1.563 0 2.736-.597 2.736-2.592 0-1.934-1.193-2.777-3.456-2.777-.535 0-.926.411-.926 1.234v3.353zm0-6.809c0 .823.391 1.234 1.317 1.234h.535c1.419 0 1.79-1.111 1.79-2.057 0-1.44-.782-2.242-2.119-2.242h-.206c-.926 0-1.317.432-1.317 1.255v1.81zM109.227 21.05c-2.53 0-5.102-1.522-5.102-4.855 0-3.312 2.571-4.731 5.04-4.731 2.551 0 5.102 1.522 5.102 4.855 0 3.312-2.551 4.731-5.04 4.731zm-1.81-5.76c0 2.551.843 4.814 2.16 4.814.802 0 1.399-.802 1.399-2.921 0-2.53-.802-4.793-2.16-4.793-.823 0-1.399.823-1.399 2.901zM118.738 21.05c-1.44 0-3.003-.597-3.003-3.826v-3.271c0-.946-.535-1.111-1.296-1.09v-.802l3.353-.555c.699-.103 1.029.206 1.029.823v4.402c0 1.44.597 2.469 1.707 2.469 1.131 0 1.707-1.029 1.707-2.469v-2.777c0-.946-.535-1.111-1.296-1.09v-.802l3.333-.555c.72-.103 1.049.206 1.049.823v6.501c0 .679.267 1.131.864.885v.453c-.288.699-1.029.885-1.728.885-1.481 0-1.893-.926-1.995-1.378-.062-.288-.226-.432-.37-.432s-.247.123-.35.267c-.576.782-1.378 1.543-3.003 1.543zM131.006 21.03c-1.893 0-3.045-1.049-3.045-3.045V13.48c0-.72-.165-.864-.638-.864h-.926v-.658c1.707-.391 2.53-1.173 3.23-2.304.165-.267.309-.35.576-.35h.37c.309 0 .494.185.494.494l-.021 1.275c0 .453.226.576 1.275.576h1.337v1.09l-1.337-.082c-1.049-.062-1.275.123-1.275.864v4.361c0 1.131.123 1.893 1.131 1.893.267 0 .679-.041 1.07-.329.267.329.37.617.103.864-.473.411-1.317.72-2.345.72zM134.489 20.125c.946-.062 1.296-.37 1.296-1.481v-4.711c0-.967-.535-1.131-1.275-1.07v-.802l3.333-.555c.699-.103 1.029.206 1.029.823v6.315c0 1.111.35 1.419 1.275 1.481v.802h-5.657v-.802zm.802-11.212c0-.987.823-1.749 1.79-1.749.946 0 1.749.761 1.749 1.749s-.802 1.749-1.749 1.749c-.967 0-1.79-.761-1.79-1.749zM146.289 24.054c1.173-.082 1.522-.391 1.522-1.419v-2.201c0-.37-.185-.494-.37-.494a.406.406 0 0 0-.288.123c-.411.411-1.296.987-2.592.987-2.119 0-4.073-1.563-4.073-4.587 0-3.291 2.283-4.999 4.649-4.999 2.057 0 2.921 1.255 3.682 1.255.72 0 1.008-1.234 1.584-1.234.37 0 .494.206.494.494v10.656c0 1.029.35 1.337 1.275 1.419v.782h-5.883v-.782zm-2.489-8.723c0 2.037.864 4.053 2.304 4.053.782 0 1.687-.576 1.707-2.88-.021-3.086-1.296-4.114-2.325-4.114-1.111 0-1.687 1.296-1.687 2.942zM156.167 21.05c-1.44 0-3.003-.597-3.003-3.826v-3.271c0-.946-.535-1.111-1.296-1.09v-.802l3.353-.555c.699-.103 1.029.206 1.029.823v4.402c0 1.44.597 2.469 1.707 2.469 1.131 0 1.707-1.029 1.707-2.469v-2.777c0-.946-.535-1.111-1.296-1.09v-.802l3.333-.555c.72-.103 1.049.206 1.049.823v6.501c0 .679.267 1.131.864.885v.453c-.288.699-1.029.885-1.728.885-1.481 0-1.893-.926-1.995-1.378-.062-.288-.226-.432-.37-.432s-.247.123-.35.267c-.576.782-1.378 1.543-3.003 1.543zM169.558 21.05c-2.571 0-5.122-1.481-5.122-4.711 0-3.374 2.757-4.875 5.307-4.875 2.181 0 3.95 1.09 3.95 2.901 0 1.851-1.79 1.954-3.6 2.098l-1.605.123c-.35.021-.535.185-.535.658 0 1.522 1.646 2.201 3.003 2.201.72 0 1.707-.206 2.448-1.049l.617.555c-.391.802-2.057 2.098-4.464 2.098zm-1.749-6.151c0 .597.144.905.679.885l.741-.082c1.419-.144 1.707-.514 1.707-1.317 0-.987-.411-1.975-1.481-1.975-1.337 0-1.646 1.502-1.646 2.489z"/>
    </symbol>
    <symbol id="icon-youtube" viewBox="0 0 46 32">
      <path fill="#e8e8e2" style="fill:var(--color1, #e8e8e2)" d="M35.929.444C33.813.32 29.458.195 22.862.195h-.871c-6.347 0-10.578.124-12.693.373-2.862.249-4.853.996-5.973 1.991-.996.871-1.742 2.489-1.991 4.604-.124 1.369-.249 4.231-.249 8.587v.622c0 4.107.124 6.969.373 8.338.373 1.991.996 3.484 2.24 4.356 1.244.996 3.36 1.618 6.347 1.867 2.116.124 6.471.249 13.067.249h.871c6.347 0 10.578-.124 12.693-.373 2.862-.249 4.853-.996 5.973-1.991.996-.871 1.742-2.489 1.991-4.604.124-1.369.249-4.231.249-8.587v-.622c0-4.107-.124-6.969-.373-8.338-.373-1.991-.996-3.484-2.24-4.356-1.244-.996-3.36-1.618-6.347-1.867zm-4.853 15.307-13.689 8.213V7.537l13.689 8.213z"/>
    </symbol>
    <symbol id="icon-insta" viewBox="0 0 32 32">
      <path fill="#e8e8e2" style="fill:var(--color1, #e8e8e2)" d="M30.837 9.882a10.776 10.776 0 0 0-.695-3.669 7.64 7.64 0 0 0-4.367-4.36 10.971 10.971 0 0 0-3.626-.695c-1.595-.071-2.101-.091-6.151-.091s-4.569 0-6.153.091a10.97 10.97 0 0 0-3.624.695 7.635 7.635 0 0 0-4.367 4.36 10.834 10.834 0 0 0-.695 3.618c-.071 1.595-.093 2.1-.093 6.143s0 4.56.093 6.143c.025 1.239.259 2.461.695 3.621a7.64 7.64 0 0 0 4.369 4.358c1.154.45 2.38.705 3.624.745 1.597.071 2.103.093 6.153.093s4.569 0 6.153-.093a10.939 10.939 0 0 0 3.626-.694 7.649 7.649 0 0 0 4.367-4.36c.436-1.159.67-2.381.695-3.621.071-1.593.093-2.098.093-6.143-.003-4.043-.003-4.557-.096-6.141zM15.988 23.62c-4.236 0-7.667-3.426-7.667-7.655s3.431-7.655 7.667-7.655c4.233 0 7.667 3.426 7.667 7.655s-3.435 7.655-7.667 7.655zm7.973-13.808a1.784 1.784 0 1 1 0-3.57 1.784 1.784 0 1 1 0 3.57z"/>
    </symbol>
    <symbol id="icon-facebook" viewBox="0 0 32 32">
      <path fill="#e8e8e2" style="fill:var(--color1, #e8e8e2)" d="M20.928.096h1.344v5.04h-1.68c-.672 0-1.344 0-1.68.336-.336.336-.336.672-.336 1.456V8.72h3.696v4.256h-3.696v18.48h-5.712V12.864H9.84V8.608h3.024V7.152c0-2.464.336-4.256 1.008-5.04C14.88.656 16.896-.016 19.92-.016c.336.112.672.112 1.008.112z"/>
    </symbol>
    <symbol id="icon-search" viewBox="0 0 32 32">
      <path d="M21.833 19.333h-1.317l-.467-.45a10.783 10.783 0 0 0 2.617-7.05 10.83 10.83 0 0 0-6.688-10.009 10.833 10.833 0 1 0-4.146 20.843c2.683 0 5.15-.983 7.05-2.617l.45.467v1.317l8.333 8.317 2.483-2.483-8.317-8.333zm-10 0c-4.15 0-7.5-3.35-7.5-7.5s3.35-7.5 7.5-7.5 7.5 3.35 7.5 7.5-3.35 7.5-7.5 7.5z"/>
    </symbol>
    <symbol id="icon-cart" viewBox="0 0 32 32">
      <path d="M4.141 1.694a1.694 1.694 0 1 0 0 3.388h2.067l.517 2.07.017.071 2.301 9.199-1.513 1.511c-2.135 2.135-.623 5.784 2.395 5.784h14.546a1.694 1.694 0 1 0 0-3.388H9.925l1.694-1.694h11.157a1.693 1.693 0 0 0 1.514-.936l5.082-10.165a1.693 1.693 0 0 0-1.515-2.451H9.696l-.525-2.106a1.694 1.694 0 0 0-1.643-1.283H4.14zm22.024 26.259a2.544 2.544 0 0 1-2.541 2.541 2.544 2.544 0 0 1-2.541-2.541 2.544 2.544 0 0 1 2.541-2.541 2.544 2.544 0 0 1 2.541 2.541zm-16.094 2.541a2.544 2.544 0 0 0 2.541-2.541 2.544 2.544 0 0 0-2.541-2.541 2.544 2.544 0 0 0-2.541 2.541 2.544 2.544 0 0 0 2.541 2.541z"/>
    </symbol>
  </defs>
</svg>
